<svg width="33" height="32" viewBox="0 0 33 32" fill="none" xmlns="http://www.w3.org/2000/svg">
<path d="M6.87695 4V9H5.87695V11H8.87695V6H24.877V26H8.87695V23H6.87695V28H26.877V4H6.87695ZM16.877 10C14.677 10 12.877 11.8 12.877 14C12.877 15.113 13.354 16.117 14.096 16.844C13.4156 17.3036 12.8578 17.9225 12.4711 18.6468C12.0843 19.3711 11.8804 20.1789 11.877 21H13.877C13.877 20.2044 14.193 19.4413 14.7556 18.8787C15.3182 18.3161 16.0813 18 16.877 18C17.6726 18 18.4357 18.3161 18.9983 18.8787C19.5609 19.4413 19.877 20.2044 19.877 21H21.877C21.8735 20.1789 21.6696 19.3711 21.2828 18.6468C20.8961 17.9225 20.3383 17.3036 19.658 16.844C20.4 16.117 20.877 15.114 20.877 14C20.877 11.8 19.077 10 16.877 10ZM6.87695 12V14H5.87695V16H8.87695V12H6.87695ZM16.877 12C17.994 12 18.877 12.883 18.877 14C18.877 15.117 17.994 16 16.877 16C15.76 16 14.877 15.117 14.877 14C14.877 12.883 15.76 12 16.877 12ZM6.87695 17V19H5.87695V21H8.87695V17H6.87695Z" fill="white" fill-opacity="0.4"/>
</svg>
