<svg width="25" height="24" viewBox="0 0 25 24" fill="none" xmlns="http://www.w3.org/2000/svg">
<g clip-path="url(#clip0_833_6174)">
<path d="M12.877 5.25C14.3267 5.25 15.502 4.07475 15.502 2.625C15.502 1.17525 14.3267 0 12.877 0C11.4272 0 10.252 1.17525 10.252 2.625C10.252 4.07475 11.4272 5.25 12.877 5.25Z" fill="white" fill-opacity="0.4"/>
<path d="M21.3613 6.00043H4.39258C4.05691 6.00043 3.735 6.13377 3.49765 6.37112C3.2603 6.60847 3.12695 6.93039 3.12695 7.26605C3.12695 7.60172 3.2603 7.92364 3.49765 8.16099C3.735 8.39834 4.05691 8.53168 4.39258 8.53168H9.1682C9.49211 8.53168 9.87133 8.67652 10.086 9.2348C10.3368 9.88309 10.214 11.1351 10.0593 12.105L9.8568 13.2511C9.85717 13.254 9.85686 13.2571 9.85589 13.2599C9.85491 13.2628 9.8533 13.2653 9.85117 13.2675L8.2293 22.4929C8.17048 22.8278 8.2467 23.1724 8.44128 23.4512C8.63586 23.73 8.93296 23.9204 9.26758 23.9807C9.43301 24.01 9.60261 24.0061 9.76652 23.9693C9.93044 23.9325 10.0854 23.8634 10.2224 23.7662C10.3594 23.669 10.4758 23.5456 10.5647 23.403C10.6536 23.2605 10.7133 23.1017 10.7404 22.9359L11.8612 16.5234C11.8612 16.5234 12.2207 15.0004 12.877 15.0004C13.544 15.0004 13.896 16.5234 13.896 16.5234L15.0168 22.9415C15.0439 23.1088 15.104 23.269 15.1937 23.4128C15.2833 23.5566 15.4007 23.6811 15.539 23.7791C15.6772 23.877 15.8336 23.9465 15.999 23.9834C16.1644 24.0204 16.3355 24.024 16.5023 23.9941C16.6691 23.9643 16.8282 23.9015 16.9705 23.8095C17.1128 23.7175 17.2354 23.5981 17.3311 23.4582C17.4268 23.3184 17.4936 23.1609 17.5278 22.9949C17.562 22.8289 17.5628 22.6578 17.5302 22.4915L15.9079 13.2661C15.9082 13.2631 15.9079 13.2601 15.9071 13.2573C15.9062 13.2545 15.9047 13.2519 15.9027 13.2496L15.6998 12.1036C15.5451 11.1337 15.4223 9.88168 15.673 9.2334C15.8868 8.67652 16.2782 8.53027 16.5768 8.53027H21.3613C21.697 8.53027 22.0189 8.39693 22.2563 8.15958C22.4936 7.92223 22.627 7.60031 22.627 7.26465C22.627 6.92898 22.4936 6.60707 22.2563 6.36972C22.0189 6.13237 21.697 5.99902 21.3613 5.99902V6.00043Z" fill="white" fill-opacity="0.4"/>
</g>
<defs>
<clipPath id="clip0_833_6174">
<rect width="24" height="24" fill="white" transform="translate(0.876953)"/>
</clipPath>
</defs>
</svg>
