<svg width="25" height="24" viewBox="0 0 25 24" fill="none" xmlns="http://www.w3.org/2000/svg">
<path d="M15.9634 0.7515C15.9634 0.552449 15.8844 0.361529 15.7438 0.220639C15.6032 0.0797483 15.4125 0.000397307 15.2134 0L10.7434 0C10.3294 0 9.99341 0.3375 9.99341 0.7515C9.99341 0.949237 9.91517 1.13894 9.77577 1.27918C9.63637 1.41943 9.44714 1.49881 9.24941 1.5C9.05169 1.5 8.86207 1.57854 8.72226 1.71835C8.58245 1.85816 8.50391 2.04778 8.50391 2.2455V3C8.50391 3.19891 8.58292 3.38968 8.72358 3.53033C8.86423 3.67098 9.05499 3.75 9.25391 3.75H16.7059C16.9048 3.75 17.0956 3.67098 17.2362 3.53033C17.3769 3.38968 17.4559 3.19891 17.4559 3V2.2455C17.4559 2.14747 17.4366 2.05041 17.399 1.95986C17.3615 1.86932 17.3064 1.78707 17.237 1.71782C17.1676 1.64858 17.0853 1.59369 16.9947 1.55632C16.904 1.51894 16.8069 1.4998 16.7089 1.5C16.5109 1.49921 16.3213 1.42 16.1816 1.27971C16.0419 1.13943 15.9634 0.949496 15.9634 0.7515V0.7515Z" fill="white" fill-opacity="0.4"/>
<path d="M6.28418 3C6.08527 3 5.8945 3.07902 5.75385 3.21967C5.6132 3.36032 5.53418 3.55109 5.53418 3.75V21.75C5.53418 21.9489 5.6132 22.1397 5.75385 22.2803C5.8945 22.421 6.08527 22.5 6.28418 22.5H19.7842C19.9831 22.5 20.1739 22.421 20.3145 22.2803C20.4552 22.1397 20.5342 21.9489 20.5342 21.75V3.75C20.5342 3.55109 20.4552 3.36032 20.3145 3.21967C20.1739 3.07902 19.9831 3 19.7842 3H19.0342C18.8353 3 18.6445 2.92098 18.5038 2.78033C18.3632 2.63968 18.2842 2.44891 18.2842 2.25C18.2842 2.05109 18.3632 1.86032 18.5038 1.71967C18.6445 1.57902 18.8353 1.5 19.0342 1.5H19.7842C20.3809 1.5 20.9532 1.73705 21.3752 2.15901C21.7971 2.58097 22.0342 3.15326 22.0342 3.75V21.75C22.0342 22.3467 21.7971 22.919 21.3752 23.341C20.9532 23.7629 20.3809 24 19.7842 24H6.28418C5.68744 24 5.11515 23.7629 4.69319 23.341C4.27123 22.919 4.03418 22.3467 4.03418 21.75V3.75C4.03418 3.15326 4.27123 2.58097 4.69319 2.15901C5.11515 1.73705 5.68744 1.5 6.28418 1.5H7.03418C7.23309 1.5 7.42386 1.57902 7.56451 1.71967C7.70516 1.86032 7.78418 2.05109 7.78418 2.25C7.78418 2.44891 7.70516 2.63968 7.56451 2.78033C7.42386 2.92098 7.23309 3 7.03418 3H6.28418V3Z" fill="white" fill-opacity="0.4"/>
<path d="M12.9786 9.72294C15.4626 7.21344 21.6711 11.6039 12.9786 17.2499C4.28612 11.6039 10.4946 7.21494 12.9786 9.72294Z" fill="white" fill-opacity="0.4"/>
</svg>
