<svg width="25" height="24" viewBox="0 0 25 24" fill="none" xmlns="http://www.w3.org/2000/svg">
<path d="M22.4573 16.09L21.3673 8.43C21.231 7.47722 20.7554 6.60566 20.0278 5.97551C19.3003 5.34536 18.3698 4.99897 17.4073 5H8.34731C6.35731 5 4.66731 6.46 4.38731 8.43L3.29731 16.09C3.22137 16.619 3.31389 17.1585 3.56177 17.632C3.80965 18.1055 4.2003 18.489 4.67833 18.728C5.15636 18.967 5.6975 19.0494 6.22502 18.9637C6.75254 18.8779 7.23966 18.6282 7.61731 18.25L9.87731 16H15.8773L18.1273 18.25C18.6073 18.73 19.2573 19 19.9273 19C21.4873 19 22.6773 17.63 22.4573 16.09ZM11.8773 11H9.87731V13H8.87731V11H6.87731V10H8.87731V8H9.87731V10H11.8773V11ZM15.8773 10C15.3273 10 14.8773 9.55 14.8773 9C14.8773 8.45 15.3273 8 15.8773 8C16.4273 8 16.8773 8.45 16.8773 9C16.8773 9.55 16.4273 10 15.8773 10ZM17.8773 13C17.3273 13 16.8773 12.55 16.8773 12C16.8773 11.45 17.3273 11 17.8773 11C18.4273 11 18.8773 11.45 18.8773 12C18.8773 12.55 18.4273 13 17.8773 13Z" fill="white" fill-opacity="0.4"/>
</svg>
