<svg width="25" height="24" viewBox="0 0 25 24" fill="none" xmlns="http://www.w3.org/2000/svg">
<path d="M12.877 11C14.207 11 16.877 11.67 16.877 13V13.16C15.907 14.28 14.477 15 12.877 15C11.277 15 9.84695 14.28 8.87695 13.16V13C8.87695 11.67 11.547 11 12.877 11ZM12.877 10C11.777 10 10.877 9.1 10.877 8C10.877 6.9 11.777 6 12.877 6C13.977 6 14.877 6.9 14.877 8C14.877 9.1 13.977 10 12.877 10ZM18.877 10.2C18.877 6.57 16.227 4 12.877 4C9.52695 4 6.87695 6.57 6.87695 10.2C6.87695 12.54 8.82695 15.64 12.877 19.34C16.927 15.64 18.877 12.54 18.877 10.2ZM12.877 2C17.077 2 20.877 5.22 20.877 10.2C20.877 13.52 18.207 17.45 12.877 22C7.54695 17.45 4.87695 13.52 4.87695 10.2C4.87695 5.22 8.67695 2 12.877 2Z" fill="white" fill-opacity="0.4"/>
</svg>
