<svg width="21" height="21" viewBox="0 0 21 21" fill="none" xmlns="http://www.w3.org/2000/svg">
<path d="M10.4375 3.30078C9.0625 3.30078 7.9375 4.42578 7.9375 5.80078C7.9375 6.49641 8.23562 7.12391 8.69938 7.57828C8.27395 7.86536 7.92518 8.25212 7.68346 8.70485C7.44173 9.15758 7.31438 9.66256 7.3125 10.1758V13.0664L8.5625 13.6914V16.4258H12.3125V13.6914L13.5625 13.0664V10.1758C13.5606 9.66256 13.4333 9.15758 13.1915 8.70485C12.9498 8.25212 12.601 7.86536 12.1756 7.57828C12.6394 7.12391 12.9375 6.49703 12.9375 5.80078C12.9375 4.42578 11.8125 3.30078 10.4375 3.30078ZM10.4375 4.55078C11.1356 4.55078 11.6875 5.10266 11.6875 5.80078C11.6875 6.49891 11.1356 7.05078 10.4375 7.05078C9.73938 7.05078 9.1875 6.49891 9.1875 5.80078C9.1875 5.10266 9.73938 4.55078 10.4375 4.55078ZM10.4375 8.30078C11.48 8.30078 12.3125 9.13328 12.3125 10.1758V12.2852L11.0625 12.9102V15.1758H9.8125V12.9102L8.5625 12.2852V10.1758C8.5625 9.13328 9.395 8.30078 10.4375 8.30078ZM6.0625 12.5977C4.23875 13.1077 2.9375 13.9727 2.9375 15.1758C2.9375 17.2264 6.70937 18.3008 10.4375 18.3008C14.1656 18.3008 17.9375 17.2264 17.9375 15.1758C17.9375 13.972 16.6362 13.1077 14.8125 12.5977V13.9064C16.0013 14.2895 16.6875 14.7852 16.6875 15.1758C16.6875 15.9227 14.195 17.0508 10.4375 17.0508C6.68 17.0508 4.1875 15.9227 4.1875 15.1758C4.1875 14.7852 4.87375 14.2895 6.0625 13.9064V12.5977Z" fill="white"/>
</svg>
