<svg width="24" height="24" viewBox="0 0 24 24" fill="none" xmlns="http://www.w3.org/2000/svg">
<path d="M5.61351 21.7324C4.51098 21.7325 3.45261 21.2991 2.66684 20.5257L2.58017 20.4391C2.18538 20.0538 1.87168 19.5935 1.65758 19.0851C1.44347 18.5768 1.33328 18.0307 1.33351 17.4791C1.33211 16.8819 1.44925 16.2904 1.67812 15.7388C1.907 15.1872 2.24306 14.6865 2.66684 14.2657L13.0002 4.04574C14.0501 2.95258 15.4874 2.31557 17.0024 2.27193C18.5175 2.22829 19.9891 2.7815 21.1002 3.81241C21.6013 4.31227 21.9979 4.90688 22.2669 5.56158C22.5358 6.21627 22.6718 6.91796 22.6668 7.62574C22.6609 8.41621 22.4988 9.19772 22.1899 9.92535C21.881 10.653 21.4314 11.3124 20.8668 11.8657L11.5802 21.0657C11.5224 21.1434 11.4485 21.2076 11.3635 21.2538C11.2785 21.3 11.1844 21.3271 11.0879 21.3333C10.9913 21.3395 10.8945 21.3246 10.8043 21.2897C10.7141 21.2547 10.6326 21.2005 10.5654 21.1309C10.4982 21.0613 10.447 20.9778 10.4153 20.8864C10.3836 20.795 10.3722 20.6978 10.3818 20.6015C10.3915 20.5052 10.422 20.4122 10.4712 20.3289C10.5204 20.2456 10.5872 20.174 10.6668 20.1191L19.9268 10.9191C20.3666 10.4898 20.7173 9.97787 20.9587 9.41271C21.2001 8.84755 21.3274 8.24027 21.3335 7.62574C21.3383 7.0939 21.2371 6.56645 21.0356 6.07422C20.8341 5.582 20.5365 5.1349 20.1602 4.75907C19.2987 3.97432 18.1636 3.55909 16.9991 3.60272C15.8346 3.64636 14.7338 4.14538 13.9335 4.99241L3.63351 15.2124C3.32998 15.5071 3.08818 15.8594 2.92221 16.2485C2.75625 16.6377 2.66944 17.056 2.66684 17.4791C2.66542 17.8506 2.73775 18.2186 2.87966 18.562C3.02156 18.9053 3.23021 19.217 3.49351 19.4791L3.58017 19.5657C4.17668 20.115 4.96501 20.4081 5.77547 20.3819C6.58593 20.3558 7.35371 20.0124 7.91351 19.4257L16.8135 10.6257C16.9818 10.4556 17.1145 10.2535 17.2038 10.0315C17.2931 9.80938 17.3372 9.57173 17.3335 9.33241C17.335 9.12454 17.2951 8.91846 17.2161 8.72617C17.1371 8.53389 17.0207 8.35924 16.8735 8.21241C16.5368 7.90368 16.0923 7.73973 15.6358 7.75594C15.1792 7.77216 14.7474 7.96724 14.4335 8.29907L8.30017 14.3791C8.17464 14.5037 8.00473 14.5734 7.82782 14.5728C7.65091 14.5722 7.48149 14.5013 7.35684 14.3757C7.23219 14.2502 7.16251 14.0803 7.16314 13.9034C7.16376 13.7265 7.23464 13.5571 7.36017 13.4324L13.5202 7.33241C14.0848 6.75396 14.8542 6.42067 15.6624 6.40445C16.4706 6.38824 17.2528 6.6904 17.8402 7.24574C18.1103 7.52074 18.3226 7.84706 18.4646 8.20544C18.6066 8.56382 18.6754 8.94702 18.6668 9.33241C18.6661 9.74742 18.5826 10.1581 18.4212 10.5405C18.2598 10.9228 18.0237 11.2691 17.7268 11.5591L8.85351 20.3857C7.99344 21.2445 6.82887 21.7285 5.61351 21.7324V21.7324Z" fill="white"/>
</svg>
