<svg width="28" height="28" viewBox="0 0 28 28" fill="none" xmlns="http://www.w3.org/2000/svg">
<path d="M3.7898 2.77319L24.8598 12.8502C25.0728 12.9519 25.2526 13.1118 25.3785 13.3114C25.5044 13.511 25.5712 13.7422 25.5712 13.9782C25.5712 14.2142 25.5044 14.4454 25.3785 14.645C25.2526 14.8446 25.0728 15.0045 24.8598 15.1062L3.7898 25.1832C3.57381 25.2866 3.33263 25.3259 3.09498 25.2962C2.85733 25.2665 2.63321 25.1692 2.44927 25.0158C2.26534 24.8625 2.12934 24.6595 2.05746 24.431C1.98557 24.2026 1.98084 23.9583 2.0438 23.7272L4.1518 15.9992C4.17761 15.9045 4.23072 15.8195 4.30452 15.7547C4.37832 15.69 4.46954 15.6484 4.5668 15.6352L14.7768 14.2482C14.8195 14.2421 14.8599 14.2251 14.894 14.1988C14.9282 14.1726 14.955 14.1379 14.9718 14.0982L14.9898 14.0362C14.9977 13.9804 14.9865 13.9235 14.958 13.8748C14.9295 13.8262 14.8854 13.7886 14.8328 13.7682L14.7778 13.7532L4.5778 12.3662C4.48072 12.3528 4.38971 12.3111 4.31611 12.2464C4.2425 12.1817 4.18954 12.0968 4.1638 12.0022L2.0438 4.23019C1.98058 3.99905 1.98513 3.75461 2.0569 3.52599C2.12867 3.29736 2.26465 3.09419 2.44863 2.94066C2.63262 2.78713 2.85685 2.68971 3.09463 2.66002C3.33241 2.63033 3.57372 2.66961 3.7898 2.77319V2.77319Z" fill="white" fill-opacity="0.14"/>
</svg>
