<svg width="24" height="25" viewBox="0 0 24 25" fill="none" xmlns="http://www.w3.org/2000/svg">
<path d="M4.5 14.7637C3.90326 14.7637 3.33097 14.5266 2.90901 14.1047C2.48705 13.6827 2.25 13.1104 2.25 12.5137C2.25 11.9169 2.48705 11.3446 2.90901 10.9227C3.33097 10.5007 3.90326 10.2637 4.5 10.2637C5.09674 10.2637 5.66903 10.5007 6.09099 10.9227C6.51295 11.3446 6.75 11.9169 6.75 12.5137C6.75 13.1104 6.51295 13.6827 6.09099 14.1047C5.66903 14.5266 5.09674 14.7637 4.5 14.7637ZM12 14.7637C11.4033 14.7637 10.831 14.5266 10.409 14.1047C9.98705 13.6827 9.75 13.1104 9.75 12.5137C9.75 11.9169 9.98705 11.3446 10.409 10.9227C10.831 10.5007 11.4033 10.2637 12 10.2637C12.5967 10.2637 13.169 10.5007 13.591 10.9227C14.0129 11.3446 14.25 11.9169 14.25 12.5137C14.25 13.1104 14.0129 13.6827 13.591 14.1047C13.169 14.5266 12.5967 14.7637 12 14.7637ZM19.5 14.7637C18.9033 14.7637 18.331 14.5266 17.909 14.1047C17.4871 13.6827 17.25 13.1104 17.25 12.5137C17.25 11.9169 17.4871 11.3446 17.909 10.9227C18.331 10.5007 18.9033 10.2637 19.5 10.2637C20.0967 10.2637 20.669 10.5007 21.091 10.9227C21.5129 11.3446 21.75 11.9169 21.75 12.5137C21.75 13.1104 21.5129 13.6827 21.091 14.1047C20.669 14.5266 20.0967 14.7637 19.5 14.7637Z" fill="white"/>
</svg>
