<svg width="24" height="24" viewBox="0 0 24 24" fill="none" xmlns="http://www.w3.org/2000/svg">
<path d="M22.0827 11.3955C21.2588 9.65972 20.2783 8.24409 19.1413 7.14862L17.9488 8.34112C18.9212 9.27042 19.7683 10.4861 20.5007 12.0002C18.5507 16.0361 15.7827 17.9533 11.9999 17.9533C10.8644 17.9533 9.81856 17.7785 8.86231 17.4288L7.5702 18.7209C8.89833 19.3342 10.3749 19.6408 11.9999 19.6408C16.5046 19.6408 19.8655 17.2947 22.0827 12.6025C22.1718 12.4138 22.2181 12.2077 22.2181 11.999C22.2181 11.7903 22.1718 11.5842 22.0827 11.3955ZM20.5928 3.8805L19.5936 2.88019C19.5762 2.86275 19.5555 2.84892 19.5328 2.83949C19.51 2.83005 19.4856 2.8252 19.461 2.8252C19.4363 2.8252 19.4119 2.83005 19.3892 2.83949C19.3664 2.84892 19.3457 2.86275 19.3283 2.88019L16.765 5.44237C15.3517 4.7205 13.7633 4.35956 11.9999 4.35956C7.4952 4.35956 4.13427 6.70566 1.91708 11.3978C1.82796 11.5866 1.78174 11.7927 1.78174 12.0014C1.78174 12.2101 1.82796 12.4162 1.91708 12.6049C2.80286 14.4705 3.86927 15.9659 5.1163 17.091L2.63614 19.5705C2.601 19.6057 2.58127 19.6533 2.58127 19.703C2.58127 19.7527 2.601 19.8004 2.63614 19.8356L3.63669 20.8361C3.67185 20.8713 3.71952 20.891 3.76923 20.891C3.81893 20.891 3.86661 20.8713 3.90177 20.8361L20.5928 4.14581C20.6102 4.1284 20.624 4.10772 20.6335 4.08496C20.6429 4.06219 20.6478 4.0378 20.6478 4.01316C20.6478 3.98851 20.6429 3.96412 20.6335 3.94135C20.624 3.91859 20.6102 3.89791 20.5928 3.8805ZM3.49911 12.0002C5.45145 7.96425 8.21942 6.04706 11.9999 6.04706C13.2782 6.04706 14.4404 6.26644 15.4949 6.71245L13.8472 8.36011C13.0669 7.94377 12.1735 7.78926 11.2987 7.91936C10.4238 8.04946 9.61401 8.45728 8.98862 9.08267C8.36323 9.70805 7.95541 10.5179 7.82531 11.3927C7.69521 12.2675 7.84973 13.161 8.26606 13.9413L6.31091 15.8964C5.2288 14.9414 4.29598 13.6474 3.49911 12.0002ZM9.28114 12.0002C9.28155 11.5869 9.37944 11.1795 9.56687 10.8112C9.75429 10.4428 10.026 10.1239 10.3598 9.88029C10.6937 9.63666 11.0803 9.47522 11.4882 9.40908C11.8962 9.34294 12.314 9.37397 12.7077 9.49964L9.40559 12.8018C9.32283 12.5426 9.28084 12.2722 9.28114 12.0002Z" fill="white"/>
<path d="M11.9062 14.6247C11.8251 14.6247 11.7452 14.6209 11.6659 14.6137L10.428 15.8516C11.1726 16.1368 11.9838 16.2002 12.7636 16.0341C13.5435 15.868 14.2585 15.4796 14.8223 14.9158C15.3861 14.352 15.7745 13.637 15.9406 12.8571C16.1067 12.0773 16.0433 11.2661 15.7581 10.5215L14.5202 11.7595C14.5274 11.8387 14.5312 11.9186 14.5312 11.9997C14.5314 12.3445 14.4636 12.6859 14.3317 13.0045C14.1999 13.323 14.0065 13.6125 13.7627 13.8563C13.519 14.1 13.2295 14.2934 12.9109 14.4252C12.5924 14.5571 12.251 14.6249 11.9062 14.6247Z" fill="white"/>
</svg>
