<svg width="17" height="17" viewBox="0 0 17 17" fill="none" xmlns="http://www.w3.org/2000/svg">
<path d="M12.4368 15.1654H4.43685C4.08323 15.1654 3.74409 15.0249 3.49404 14.7748C3.24399 14.5248 3.10352 14.1857 3.10352 13.832V3.16536C3.10352 2.81174 3.24399 2.4726 3.49404 2.22256C3.74409 1.97251 4.08323 1.83203 4.43685 1.83203H9.10352C9.11081 1.83206 9.11804 1.83341 9.12485 1.83603C9.13136 1.83804 9.13806 1.83938 9.14485 1.84003C9.20352 1.84403 9.26152 1.85536 9.31752 1.87403L9.33618 1.88003C9.42605 1.91272 9.50772 1.96459 9.57552 2.03203L13.5755 6.03203C13.6314 6.08856 13.6766 6.15474 13.7088 6.22737C13.7155 6.24203 13.7202 6.25736 13.7255 6.2727L13.7315 6.29003C13.7502 6.34537 13.7608 6.40336 13.7642 6.46203L13.7688 6.48003C13.7702 6.4867 13.7702 6.4927 13.7702 6.4987V13.832C13.7702 14.1857 13.6297 14.5248 13.3797 14.7748C13.1296 15.0249 12.7905 15.1654 12.4368 15.1654ZM4.43685 3.16536V13.832H12.4368V7.16536H9.10352C8.9267 7.16536 8.75714 7.09513 8.63211 6.9701C8.50709 6.84508 8.43685 6.67551 8.43685 6.4987V3.16536H4.43685ZM9.77018 4.10803V5.83203H11.4942L9.77018 4.10803Z" fill="white"/>
</svg>
