<svg width="18" height="19" viewBox="0 0 18 19" fill="none" xmlns="http://www.w3.org/2000/svg">
<path fill-rule="evenodd" clip-rule="evenodd" d="M0.566478 0.558977C0.358752 0.632283 0.13171 0.864645 0.058774 1.07858C0.00518892 1.23574 0.000509454 1.91254 0.000509454 9.49918C0.000509454 18.7576 -0.0238026 17.9499 0.263474 18.237C0.544981 18.5183 0.189553 18.4997 5.29569 18.4997C10.4018 18.4997 10.0464 18.5183 10.3279 18.237C10.6721 17.8931 10.6721 17.3485 10.3279 17.0046C10.0479 16.7248 10.3415 16.7418 5.7996 16.7418H1.75971V9.49918V2.25653H5.7996C10.3415 2.25653 10.0479 2.27359 10.3279 1.99376C10.6721 1.64987 10.6721 1.10527 10.3279 0.761384C10.0462 0.4798 10.4045 0.498258 5.28063 0.501388C1.24595 0.503849 0.703907 0.510458 0.566478 0.558977ZM12.3853 4.20706C11.9056 4.3621 11.6538 4.92696 11.8597 5.38564C11.9133 5.50511 12.3074 5.92061 13.4685 7.08203L15.0061 8.62022H10.7289C5.92126 8.62022 6.24404 8.60243 5.96327 8.88299C5.6191 9.22688 5.6191 9.77148 5.96327 10.1154C6.24404 10.3959 5.92126 10.3781 10.7289 10.3781H15.0061L13.4704 11.9163C12.6257 12.7623 11.9058 13.5099 11.8706 13.5776C11.7767 13.7581 11.7829 14.1477 11.8829 14.3368C11.9711 14.5039 12.1718 14.6905 12.3376 14.7598C12.5048 14.8296 12.8659 14.82 13.0398 14.7411C13.253 14.6443 17.8046 10.1181 17.9161 9.89211C18.028 9.66506 18.028 9.3333 17.9161 9.10625C17.8115 8.89417 13.2705 4.37107 13.0485 4.25786C12.8622 4.16293 12.587 4.14184 12.3853 4.20706Z" fill="#2B66FB"/>
</svg>
