<svg width="17" height="16" viewBox="0 0 17 16" fill="none" xmlns="http://www.w3.org/2000/svg">
<path d="M12.3822 14.6654H4.38216C4.02854 14.6654 3.6894 14.5249 3.43935 14.2748C3.1893 14.0248 3.04883 13.6857 3.04883 13.332V2.66536C3.04883 2.31174 3.1893 1.9726 3.43935 1.72256C3.6894 1.47251 4.02854 1.33203 4.38216 1.33203H9.04883C9.05612 1.33206 9.06335 1.33341 9.07016 1.33603C9.07667 1.33804 9.08338 1.33938 9.09016 1.34003C9.14883 1.34403 9.20683 1.35536 9.26283 1.37403L9.28149 1.38003C9.37136 1.41272 9.45303 1.46459 9.52083 1.53203L13.5208 5.53203C13.5767 5.58856 13.6219 5.65474 13.6542 5.72736C13.6608 5.74203 13.6655 5.75736 13.6708 5.7727L13.6768 5.79003C13.6955 5.84536 13.7062 5.90336 13.7095 5.96203L13.7142 5.98003C13.7155 5.9867 13.7155 5.9927 13.7155 5.9987V13.332C13.7155 13.6857 13.575 14.0248 13.325 14.2748C13.0749 14.5249 12.7358 14.6654 12.3822 14.6654ZM4.38216 2.66536V13.332H12.3822V6.66536H9.04883C8.87202 6.66536 8.70245 6.59513 8.57742 6.4701C8.4524 6.34508 8.38216 6.17551 8.38216 5.9987V2.66536H4.38216ZM9.71549 3.60803V5.33203H11.4395L9.71549 3.60803Z" fill="white"/>
</svg>
