<svg width="25" height="24" viewBox="0 0 25 24" fill="none" xmlns="http://www.w3.org/2000/svg">
<path d="M6.94998 21.2463C5.91637 21.2464 4.92416 20.8401 4.1875 20.1151L4.10625 20.0338C3.73613 19.6727 3.44205 19.2411 3.24132 18.7645C3.0406 18.2879 2.9373 17.776 2.93751 17.2589C2.9362 16.699 3.04602 16.1444 3.26058 15.6273C3.47515 15.1102 3.79021 14.6408 4.1875 14.2464L13.8749 4.66518C14.8592 3.64036 16.2067 3.04317 17.627 3.00225C19.0474 2.96133 20.427 3.47997 21.4686 4.44644C21.9384 4.91505 22.3102 5.4725 22.5624 6.08627C22.8146 6.70005 22.942 7.35787 22.9374 8.02141C22.9318 8.76247 22.7799 9.49513 22.4903 10.1773C22.2007 10.8594 21.7791 11.4776 21.2499 11.9964L12.5437 20.6213C12.4896 20.6941 12.4203 20.7543 12.3406 20.7976C12.2609 20.8409 12.1727 20.8664 12.0822 20.8722C11.9916 20.878 11.9009 20.864 11.8163 20.8312C11.7317 20.7985 11.6553 20.7477 11.5923 20.6824C11.5293 20.6171 11.4813 20.5389 11.4516 20.4532C11.4219 20.3675 11.4112 20.2764 11.4202 20.1861C11.4293 20.0958 11.4579 20.0086 11.504 19.9305C11.5502 19.8524 11.6128 19.7853 11.6875 19.7338L20.3686 11.1089C20.7809 10.7064 21.1097 10.2265 21.336 9.69668C21.5623 9.16685 21.6817 8.59753 21.6874 8.02141C21.6919 7.52282 21.597 7.02833 21.4081 6.56687C21.2192 6.10542 20.9402 5.68626 20.5874 5.33393C19.7798 4.59823 18.7156 4.20895 17.6239 4.24986C16.5322 4.29077 15.5002 4.75859 14.7499 5.55268L5.09375 15.1339C4.80919 15.4102 4.58251 15.7404 4.42691 16.1052C4.27132 16.4701 4.18993 16.8622 4.1875 17.2589C4.18617 17.6071 4.25398 17.9522 4.38702 18.274C4.52005 18.5959 4.71566 18.8882 4.9625 19.1338L5.04375 19.2151C5.60296 19.73 6.34202 20.0048 7.10183 19.9803C7.86163 19.9557 8.58141 19.6338 9.10622 19.0838L17.4499 10.8339C17.6077 10.6744 17.7321 10.4849 17.8158 10.2768C17.8995 10.0686 17.9408 9.84577 17.9374 9.6214C17.9388 9.42653 17.9014 9.23333 17.8273 9.05306C17.7533 8.87279 17.6441 8.70906 17.5062 8.57141C17.1905 8.28198 16.7738 8.12828 16.3458 8.14348C15.9178 8.15868 15.513 8.34156 15.2187 8.65266L9.46872 14.3526C9.35103 14.4695 9.19174 14.5348 9.02589 14.5342C8.86003 14.5336 8.70121 14.4672 8.58435 14.3495C8.46749 14.2318 8.40217 14.0725 8.40275 13.9067C8.40334 13.7408 8.46978 13.582 8.58747 13.4651L14.3624 7.74641C14.8918 7.20412 15.6131 6.89167 16.3708 6.87647C17.1285 6.86127 17.8617 7.14454 18.4124 7.66516C18.6657 7.92297 18.8647 8.22889 18.9978 8.56488C19.1309 8.90086 19.1954 9.2601 19.1874 9.6214C19.1867 10.0105 19.1084 10.3955 18.9571 10.7539C18.8058 11.1124 18.5845 11.437 18.3062 11.7089L9.98746 19.9838C9.18115 20.7889 8.08938 21.2427 6.94998 21.2463V21.2463Z" fill="white"/>
</svg>
