<svg width="50" height="37" viewBox="0 0 50 37" fill="none" xmlns="http://www.w3.org/2000/svg">
<path d="M0 29.675H2.36149C2.76877 29.675 3.12641 29.7195 3.43443 29.8085C3.74245 29.894 3.99914 30.0155 4.20448 30.173C4.40983 30.3304 4.56384 30.5186 4.66652 30.7377C4.77261 30.9533 4.82566 31.1894 4.82566 31.4461C4.82566 31.6583 4.78459 31.8568 4.70245 32.0416C4.62374 32.2264 4.51079 32.3941 4.36363 32.5447C4.21989 32.6919 4.04534 32.8202 3.83999 32.9298C3.63465 33.0359 3.40876 33.1197 3.16235 33.1813L5.64192 36.4823H4.31229L1.94567 33.284H1.14481V36.4823H0V29.675ZM1.14481 32.94H1.80706C2.06374 32.94 2.29989 32.9058 2.5155 32.8374C2.73454 32.7689 2.92278 32.6731 3.08021 32.5499C3.24106 32.4232 3.36598 32.2709 3.45497 32.093C3.54395 31.915 3.58844 31.7148 3.58844 31.4923C3.58844 31.287 3.55251 31.0987 3.48064 30.9276C3.41219 30.7565 3.31294 30.611 3.18288 30.4913C3.05625 30.3681 2.90395 30.2722 2.72598 30.2038C2.55144 30.1353 2.35978 30.1011 2.15101 30.1011H1.14481V32.94Z" fill="white"/>
<path d="M13.5648 29.675V30.1165H9.97639V32.5499H12.3789V32.9914H9.97639V36.0408H13.5648V36.4823H8.83157V29.675H13.5648Z" fill="white"/>
<path d="M17.1703 29.675H19.4394C20.1376 29.675 20.7382 29.74 21.2413 29.8701C21.7444 30.0001 22.1637 30.2089 22.4991 30.4964C22.8824 30.825 23.1699 31.2014 23.3615 31.6258C23.5566 32.0502 23.6542 32.5139 23.6542 33.017C23.6542 33.4962 23.5669 33.9462 23.3923 34.3672C23.2212 34.7882 22.968 35.1561 22.6325 35.4709C22.3006 35.7824 21.8882 36.0288 21.3953 36.2102C20.9059 36.3916 20.3446 36.4823 19.7115 36.4823H17.1703V29.675ZM18.3151 35.9843H19.5318C19.9151 35.9843 20.2762 35.921 20.615 35.7944C20.9538 35.6677 21.2482 35.4795 21.498 35.2296C21.7513 34.9798 21.9498 34.6735 22.0935 34.3107C22.2407 33.9445 22.3143 33.5218 22.3143 33.0427C22.3143 32.6217 22.2458 32.2367 22.1089 31.8876C21.972 31.5351 21.7804 31.2322 21.5339 30.979C21.2875 30.7257 20.9932 30.5289 20.6509 30.3886C20.3121 30.2483 19.9408 30.1781 19.5369 30.1781H18.3151V35.9843Z" fill="white"/>
<path d="M30.1242 29.521L33.3277 36.4823H32.1623L31.1253 34.2132H28.2042L27.1313 36.4823H26.5563L29.8367 29.521H30.1242ZM28.4045 33.7717H30.9148L29.6776 31.0765L28.4045 33.7717Z" fill="white"/>
<path d="M41.8871 29.675V30.1165H39.423V36.4823H38.2782V30.1165H35.814V29.675H41.8871Z" fill="white"/>
<path d="M50 29.675V30.1165H46.4116V32.5499H48.8141V32.9914H46.4116V36.0408H50V36.4823H45.2667V29.675H50Z" fill="white"/>
<g clip-path="url(#clip0_3481_41735)">
<path d="M38.8493 6.35455C38.2332 4.98901 37.3091 3.78307 36.0945 2.72787C35.0208 1.80568 33.6918 1.13178 32.0812 0.71502C30.4706 0.289395 28.5608 0.0854492 26.3341 0.0854492H23.7817C24.037 0.324863 25.2075 1.46873 25.4011 1.69928H26.6509C27.9359 1.69928 29.124 1.92096 30.2154 2.37318C31.2979 2.82541 32.2396 3.45498 33.0229 4.27076C33.8062 5.08654 34.4223 6.05307 34.8536 7.1792C35.2936 8.30533 35.5048 9.54674 35.5048 10.9034C35.5048 12.4463 35.276 13.803 34.8096 14.9735C34.3431 16.1439 33.7094 17.1282 32.9085 17.9351C32.1076 18.742 31.1659 19.345 30.0834 19.7529C29.4673 19.9834 28.8248 20.1519 28.1559 20.2494L29.3441 21.8455C30.5146 21.7125 31.5883 21.4554 32.5741 21.0918C34.1407 20.5066 35.452 19.7174 36.517 18.7065C37.5819 17.7046 38.3916 16.5164 38.9373 15.1685C39.4918 13.8119 39.7646 12.3665 39.7646 10.8325C39.7734 9.20979 39.4654 7.7201 38.8493 6.35455Z" fill="white"/>
<path d="M27.5133 21.7835L26.3252 20.1874L20.9125 12.9341L19.6891 11.2936C20.1116 11.1872 20.5252 11.0542 20.9125 10.9035C21.2381 10.7793 21.555 10.6375 21.8542 10.4779C22.5055 10.132 23.0687 9.71528 23.5352 9.23645C24.0017 8.75762 24.3625 8.22559 24.6177 7.63149C24.873 7.03738 25.005 6.39895 25.005 5.71617C25.005 4.89152 24.8378 4.12895 24.5033 3.42844C24.1777 2.7368 23.6848 2.1427 23.0423 1.63727C23.0335 1.6284 23.0247 1.6284 23.0247 1.61953C22.3735 1.1141 21.555 0.723945 20.5692 0.440195C19.6187 0.17418 18.5186 0.0323047 17.2688 0.0234375C17.2248 0.0234375 17.1896 0.0234375 17.1456 0.0234375H9.61182V21.8988H13.2643V11.6217H15.8166L17.2688 13.5902L20.9213 18.5647L22.1974 20.2938L23.3768 21.8988H27.6189L27.5133 21.7835ZM17.6384 10.1852C17.5152 10.2207 17.392 10.2562 17.26 10.2916C16.6703 10.4424 16.0454 10.5133 15.3678 10.5133H13.2555V1.38898H16.4679C16.7407 1.38898 17.0048 1.40672 17.26 1.44219C17.6296 1.49539 17.9817 1.58406 18.3073 1.71707C18.8706 1.93875 19.3547 2.24023 19.7683 2.63039C20.1732 3.02055 20.49 3.49051 20.7188 4.04027C20.7981 4.23535 20.8685 4.4393 20.9125 4.65211C21.0093 5.0334 21.0533 5.43242 21.0533 5.85805C21.0533 6.26594 21.0093 6.64723 20.9125 7.01078C20.8421 7.28567 20.7452 7.54281 20.6308 7.7911C20.3492 8.3586 19.9531 8.84629 19.4427 9.25418C18.9322 9.65321 18.3337 9.96356 17.6384 10.1852Z" fill="white"/>
</g>
<defs>
<clipPath id="clip0_3481_41735">
<rect width="30.1615" height="21.8754" fill="white" transform="translate(9.61182 0.0234375)"/>
</clipPath>
</defs>
</svg>
