<svg width="21" height="20" viewBox="0 0 21 20" fill="none" xmlns="http://www.w3.org/2000/svg">
<path d="M10.3993 16.4131C10.3993 16.4126 10.3988 16.4122 10.3983 16.4125L5.36996 19.0568C4.63635 19.4426 3.77883 18.8197 3.91888 18.0028L4.79038 12.9194C4.846 12.595 4.73842 12.264 4.50271 12.0343L0.810338 8.43578C0.216743 7.85728 0.544208 6.84924 1.36446 6.73003L6.46763 5.98834C6.79334 5.94101 7.0749 5.73643 7.22055 5.44128L9.50256 0.817127C9.86937 0.0738508 10.9293 0.0738496 11.2961 0.817126L13.5781 5.44128C13.7237 5.73643 14.0053 5.94101 14.331 5.98834L19.4342 6.73003C20.2544 6.84924 20.5819 7.85729 19.9883 8.43579L16.2959 12.0343C16.0602 12.264 15.9526 12.595 16.0082 12.9194L16.8798 18.0032C17.0199 18.8201 16.1625 19.443 15.4289 19.0574L10.3997 16.4137C10.3995 16.4136 10.3993 16.4134 10.3993 16.4131V16.4131Z" fill="url(#paint0_linear_2844_33677)"/>
<defs>
<linearGradient id="paint0_linear_2844_33677" x1="-0.810552" y1="-1.1628" x2="20.5876" y2="19.2909" gradientUnits="userSpaceOnUse">
<stop stop-color="#F9AE3F"/>
<stop offset="0.385417" stop-color="#FFDBA5"/>
<stop offset="1" stop-color="#AD6902"/>
</linearGradient>
</defs>
</svg>
