<svg width="21" height="20" viewBox="0 0 21 20" fill="none" xmlns="http://www.w3.org/2000/svg">
<path d="M10.1598 16.9522C10.1598 16.9516 10.1593 16.9513 10.1588 16.9515L5.13045 19.5959C4.39685 19.9817 3.53933 19.3588 3.67938 18.5418L4.55088 13.4585C4.6065 13.134 4.49892 12.803 4.2632 12.5733L0.570836 8.97485C-0.0227591 8.39635 0.304706 7.38831 1.12495 7.26909L6.22813 6.52741C6.55384 6.48007 6.8354 6.27549 6.98105 5.98035L9.26306 1.35619C9.62987 0.612913 10.6898 0.612912 11.0566 1.35619L13.3386 5.98035C13.4842 6.27549 13.7658 6.48007 14.0915 6.52741L19.1947 7.26909C20.0149 7.38831 20.3424 8.39635 19.7488 8.97485L16.0564 12.5733C15.8207 12.803 15.7131 13.134 15.7687 13.4585L16.6403 18.5423C16.7804 19.3592 15.923 19.9821 15.1894 19.5964L10.1602 16.9528C10.16 16.9527 10.1598 16.9524 10.1598 16.9522V16.9522Z" fill="#242529"/>
</svg>
