<svg width="16" height="16" viewBox="0 0 16 16" fill="none" xmlns="http://www.w3.org/2000/svg">
<path fill-rule="evenodd" clip-rule="evenodd" d="M7.28481 0.0173613C5.41396 0.201777 3.71471 1.00035 2.39043 2.31757C1.91098 2.79446 1.67948 3.07454 1.32206 3.61011C0.603703 4.68651 0.157804 5.97032 0.0325345 7.32292C-0.147726 9.26938 0.424255 11.21 1.66926 12.8757C1.95491 13.2579 2.74494 14.0485 3.12688 14.3343C4.22498 15.1561 5.36904 15.6614 6.62708 15.8801C9.15779 16.3201 11.6933 15.5366 13.5648 13.7365C15.9155 11.4753 16.6483 7.96248 15.3942 4.96712C14.9795 3.97656 14.426 3.15931 13.6314 2.36421C12.3557 1.08769 10.8766 0.337766 9.09804 0.0657568C8.71614 0.00731931 7.66981 -0.0205855 7.28481 0.0173613ZM8.95736 1.97467C10.6638 2.25557 12.1217 3.19466 13.0841 4.63283C14.2526 6.37907 14.4177 8.70912 13.5072 10.604C13.3585 10.9134 13.0466 11.4376 12.9564 11.53C12.9165 11.5707 12.3949 11.0598 8.66155 7.32411L4.41209 3.07191L4.64812 2.90748C5.15423 2.55498 5.99807 2.19563 6.66819 2.04725C7.37754 1.89018 8.27174 1.86183 8.95736 1.97467ZM11.5678 12.9159C11.5678 12.9609 10.9951 13.313 10.6418 13.4852C9.54907 14.0181 8.26908 14.2085 7.06597 14.0171C3.33768 13.4243 1.04873 9.66783 2.22436 6.07158C2.37051 5.62451 2.65888 5.02572 2.90326 4.66186L3.07999 4.39873L7.32389 8.64502C9.65805 10.9805 11.5678 12.9024 11.5678 12.9159Z" fill="white"/>
</svg>
