<svg width="25" height="25" viewBox="0 0 25 25" fill="none" xmlns="http://www.w3.org/2000/svg">
<path d="M8.89844 5.11328H8.71094C8.81406 5.11328 8.89844 5.02891 8.89844 4.92578V5.11328H16.0234V4.92578C16.0234 5.02891 16.1078 5.11328 16.2109 5.11328H16.0234V6.80078H17.7109V4.92578C17.7109 4.09844 17.0383 3.42578 16.2109 3.42578H8.71094C7.88359 3.42578 7.21094 4.09844 7.21094 4.92578V6.80078H8.89844V5.11328ZM20.7109 6.80078H4.21094C3.79609 6.80078 3.46094 7.13594 3.46094 7.55078V8.30078C3.46094 8.40391 3.54531 8.48828 3.64844 8.48828H5.06406L5.64297 20.7461C5.68047 21.5453 6.34141 22.1758 7.14062 22.1758H17.7812C18.5828 22.1758 19.2414 21.5477 19.2789 20.7461L19.8578 8.48828H21.2734C21.3766 8.48828 21.4609 8.40391 21.4609 8.30078V7.55078C21.4609 7.13594 21.1258 6.80078 20.7109 6.80078ZM17.6008 20.4883H7.32109L6.75391 8.48828H18.168L17.6008 20.4883Z" fill="white"/>
</svg>
