<svg width="25" height="25" viewBox="0 0 25 25" fill="none" xmlns="http://www.w3.org/2000/svg">
<g clip-path="url(#clip0_1514_32074)">
<path d="M2.71094 2.30078C2.51203 2.30078 2.32126 2.3798 2.18061 2.52045C2.03996 2.6611 1.96094 2.85187 1.96094 3.05078V7.55078C1.96094 7.74969 1.88192 7.94046 1.74127 8.08111C1.60062 8.22176 1.40985 8.30078 1.21094 8.30078C1.01203 8.30078 0.82126 8.22176 0.680607 8.08111C0.539955 7.94046 0.460938 7.74969 0.460938 7.55078V3.05078C0.460938 2.45404 0.69799 1.88175 1.11995 1.45979C1.5419 1.03783 2.1142 0.800781 2.71094 0.800781L7.21094 0.800781C7.40985 0.800781 7.60062 0.879799 7.74127 1.02045C7.88192 1.1611 7.96094 1.35187 7.96094 1.55078C7.96094 1.74969 7.88192 1.94046 7.74127 2.08111C7.60062 2.22176 7.40985 2.30078 7.21094 2.30078H2.71094ZM16.9609 1.55078C16.9609 1.35187 17.04 1.1611 17.1806 1.02045C17.3213 0.879799 17.512 0.800781 17.7109 0.800781H22.2109C22.8077 0.800781 23.38 1.03783 23.8019 1.45979C24.2239 1.88175 24.4609 2.45404 24.4609 3.05078V7.55078C24.4609 7.74969 24.3819 7.94046 24.2413 8.08111C24.1006 8.22176 23.9098 8.30078 23.7109 8.30078C23.512 8.30078 23.3213 8.22176 23.1806 8.08111C23.04 7.94046 22.9609 7.74969 22.9609 7.55078V3.05078C22.9609 2.85187 22.8819 2.6611 22.7413 2.52045C22.6006 2.3798 22.4098 2.30078 22.2109 2.30078H17.7109C17.512 2.30078 17.3213 2.22176 17.1806 2.08111C17.04 1.94046 16.9609 1.74969 16.9609 1.55078ZM1.21094 17.3008C1.40985 17.3008 1.60062 17.3798 1.74127 17.5205C1.88192 17.6611 1.96094 17.8519 1.96094 18.0508V22.5508C1.96094 22.7497 2.03996 22.9405 2.18061 23.0811C2.32126 23.2218 2.51203 23.3008 2.71094 23.3008H7.21094C7.40985 23.3008 7.60062 23.3798 7.74127 23.5205C7.88192 23.6611 7.96094 23.8519 7.96094 24.0508C7.96094 24.2497 7.88192 24.4405 7.74127 24.5811C7.60062 24.7218 7.40985 24.8008 7.21094 24.8008H2.71094C2.1142 24.8008 1.5419 24.5637 1.11995 24.1418C0.69799 23.7198 0.460938 23.1475 0.460938 22.5508L0.460938 18.0508C0.460938 17.8519 0.539955 17.6611 0.680607 17.5205C0.82126 17.3798 1.01203 17.3008 1.21094 17.3008ZM23.7109 17.3008C23.9098 17.3008 24.1006 17.3798 24.2413 17.5205C24.3819 17.6611 24.4609 17.8519 24.4609 18.0508V22.5508C24.4609 23.1475 24.2239 23.7198 23.8019 24.1418C23.38 24.5637 22.8077 24.8008 22.2109 24.8008H17.7109C17.512 24.8008 17.3213 24.7218 17.1806 24.5811C17.04 24.4405 16.9609 24.2497 16.9609 24.0508C16.9609 23.8519 17.04 23.6611 17.1806 23.5205C17.3213 23.3798 17.512 23.3008 17.7109 23.3008H22.2109C22.4098 23.3008 22.6006 23.2218 22.7413 23.0811C22.8819 22.9405 22.9609 22.7497 22.9609 22.5508V18.0508C22.9609 17.8519 23.04 17.6611 23.1806 17.5205C23.3213 17.3798 23.512 17.3008 23.7109 17.3008Z" fill="white"/>
<path d="M4.96094 21.8008C4.96094 21.8008 3.46094 21.8008 3.46094 20.3008C3.46094 18.8008 4.96094 14.3008 12.4609 14.3008C19.9609 14.3008 21.4609 18.8008 21.4609 20.3008C21.4609 21.8008 19.9609 21.8008 19.9609 21.8008H4.96094ZM16.9609 8.30078C16.9609 9.49426 16.4868 10.6388 15.6429 11.4828C14.799 12.3267 13.6544 12.8008 12.4609 12.8008C11.2675 12.8008 10.1229 12.3267 9.27896 11.4828C8.43504 10.6388 7.96094 9.49426 7.96094 8.30078C7.96094 7.10731 8.43504 5.96271 9.27896 5.1188C10.1229 4.27489 11.2675 3.80078 12.4609 3.80078C13.6544 3.80078 14.799 4.27489 15.6429 5.1188C16.4868 5.96271 16.9609 7.10731 16.9609 8.30078Z" fill="white"/>
</g>
<defs>
<clipPath id="clip0_1514_32074">
<rect width="24" height="24" fill="white" transform="translate(0.460938 0.800781)"/>
</clipPath>
</defs>
</svg>
