<svg width="24" height="24" viewBox="0 0 24 24" fill="none" xmlns="http://www.w3.org/2000/svg">
<g clip-path="url(#clip0_529_1745)">
<path d="M22.4 6.4H16V12C16.0023 12.7076 16.2391 13.3946 16.6733 13.9533C17.1076 14.5121 17.7148 14.9111 18.4 15.088V20.8H17.6C17.3878 20.8 17.1843 20.8843 17.0343 21.0343C16.8843 21.1843 16.8 21.3878 16.8 21.6C16.8 21.8122 16.8843 22.0157 17.0343 22.1657C17.1843 22.3157 17.3878 22.4 17.6 22.4H20.8C21.0121 22.4 21.2156 22.3157 21.3657 22.1657C21.5157 22.0157 21.6 21.8122 21.6 21.6C21.6 21.3878 21.5157 21.1843 21.3657 21.0343C21.2156 20.8843 21.0121 20.8 20.8 20.8H20V15.088C20.6852 14.9111 21.2924 14.5121 21.7266 13.9533C22.1609 13.3946 22.3977 12.7076 22.4 12V6.4ZM20.8 12C20.8 12.4243 20.6314 12.8313 20.3313 13.1314C20.0313 13.4314 19.6243 13.6 19.2 13.6C18.7756 13.6 18.3687 13.4314 18.0686 13.1314C17.7685 12.8313 17.6 12.4243 17.6 12V8H20.8V12ZM8.79998 4V3.2C9.01215 3.2 9.21563 3.11571 9.36566 2.96569C9.51569 2.81566 9.59998 2.61217 9.59998 2.4C9.59998 2.18783 9.51569 1.98434 9.36566 1.83431C9.21563 1.68429 9.01215 1.6 8.79998 1.6V0.8C8.79998 0.587827 8.71569 0.384344 8.56566 0.234315C8.41563 0.0842855 8.21215 0 7.99998 0L6.39998 0C6.1878 0 5.98432 0.0842855 5.83429 0.234315C5.68426 0.384344 5.59998 0.587827 5.59998 0.8V1.6C5.3878 1.6 5.18432 1.68429 5.03429 1.83431C4.88426 1.98434 4.79998 2.18783 4.79998 2.4C4.79998 2.61217 4.88426 2.81566 5.03429 2.96569C5.18432 3.11571 5.3878 3.2 5.59998 3.2V4C5.59998 6.288 1.59998 8.912 1.59998 11.2V20.8C1.59998 21.2243 1.76855 21.6313 2.0686 21.9314C2.36866 22.2314 2.77563 22.4 3.19998 22.4H11.2C11.6122 22.364 11.9986 22.1838 12.2912 21.8912C12.5838 21.5986 12.7639 21.2122 12.8 20.8V11.2C12.8 9.04 8.79998 6.16 8.79998 4ZM7.19998 19.2C6.13911 19.2 5.12169 18.7786 4.37155 18.0284C3.6214 17.2783 3.19998 16.2609 3.19998 15.2C3.19998 14.1391 3.6214 13.1217 4.37155 12.3716C5.12169 11.6214 6.13911 11.2 7.19998 11.2C8.26084 11.2 9.27826 11.6214 10.0284 12.3716C10.7785 13.1217 11.2 14.1391 11.2 15.2C11.2 16.2609 10.7785 17.2783 10.0284 18.0284C9.27826 18.7786 8.26084 19.2 7.19998 19.2Z" fill="white" fill-opacity="0.33"/>
</g>
<defs>
<clipPath id="clip0_529_1745">
<rect width="24" height="24" fill="white"/>
</clipPath>
</defs>
</svg>
