<svg width="16" height="17" viewBox="0 0 16 17" fill="none" xmlns="http://www.w3.org/2000/svg">
<path fill-rule="evenodd" clip-rule="evenodd" d="M7.28481 0.517361C5.41396 0.701777 3.71471 1.50035 2.39043 2.81757C1.91098 3.29446 1.67948 3.57454 1.32206 4.11011C0.603703 5.18651 0.157804 6.47032 0.0325345 7.82292C-0.147726 9.76938 0.424255 11.71 1.66926 13.3757C1.95491 13.7579 2.74494 14.5485 3.12688 14.8343C4.22498 15.6561 5.36904 16.1614 6.62708 16.3801C9.15779 16.8201 11.6933 16.0366 13.5648 14.2365C15.9155 11.9753 16.6483 8.46248 15.3942 5.46712C14.9795 4.47656 14.426 3.65931 13.6314 2.86421C12.3557 1.58769 10.8766 0.837766 9.09804 0.565757C8.71614 0.507319 7.66981 0.479414 7.28481 0.517361ZM8.95736 2.47467C10.6638 2.75557 12.1217 3.69466 13.0841 5.13283C14.2526 6.87907 14.4177 9.20912 13.5072 11.104C13.3585 11.4134 13.0466 11.9376 12.9564 12.03C12.9165 12.0707 12.3949 11.5598 8.66155 7.82411L4.41209 3.57191L4.64812 3.40748C5.15423 3.05498 5.99807 2.69563 6.66819 2.54725C7.37754 2.39018 8.27174 2.36183 8.95736 2.47467ZM11.5678 13.4159C11.5678 13.4609 10.9951 13.813 10.6418 13.9852C9.54907 14.5181 8.26908 14.7085 7.06597 14.5171C3.33768 13.9243 1.04873 10.1678 2.22436 6.57158C2.37051 6.12451 2.65888 5.52572 2.90326 5.16186L3.07999 4.89873L7.32389 9.14502C9.65805 11.4805 11.5678 13.4024 11.5678 13.4159Z" fill="white"/>
</svg>
