<svg width="24" height="25" viewBox="0 0 24 25" fill="none" xmlns="http://www.w3.org/2000/svg">
<path d="M14.25 19.7852C14.25 20.3819 14.0129 20.9542 13.591 21.3761C13.169 21.7981 12.5967 22.0352 12 22.0352C11.4033 22.0352 10.831 21.7981 10.409 21.3761C9.98705 20.9542 9.75 20.3819 9.75 19.7852C9.75 19.1884 9.98705 18.6161 10.409 18.1942C10.831 17.7722 11.4033 17.5352 12 17.5352C12.5967 17.5352 13.169 17.7722 13.591 18.1942C14.0129 18.6161 14.25 19.1884 14.25 19.7852ZM14.25 12.2852C14.25 12.8819 14.0129 13.4542 13.591 13.8761C13.169 14.2981 12.5967 14.5352 12 14.5352C11.4033 14.5352 10.831 14.2981 10.409 13.8761C9.98705 13.4542 9.75 12.8819 9.75 12.2852C9.75 11.6884 9.98705 11.1161 10.409 10.6942C10.831 10.2722 11.4033 10.0352 12 10.0352C12.5967 10.0352 13.169 10.2722 13.591 10.6942C14.0129 11.1161 14.25 11.6884 14.25 12.2852ZM14.25 4.78516C14.25 5.38189 14.0129 5.95419 13.591 6.37615C13.169 6.7981 12.5967 7.03516 12 7.03516C11.4033 7.03516 10.831 6.7981 10.409 6.37615C9.98705 5.95419 9.75 5.38189 9.75 4.78516C9.75 4.18842 9.98705 3.61612 10.409 3.19417C10.831 2.77221 11.4033 2.53516 12 2.53516C12.5967 2.53516 13.169 2.77221 13.591 3.19417C14.0129 3.61612 14.25 4.18842 14.25 4.78516Z" fill="white"/>
</svg>
