<svg width="16" height="17" viewBox="0 0 16 17" fill="none" xmlns="http://www.w3.org/2000/svg">
<path d="M8 15.5C6.14348 15.5 4.36301 14.7625 3.05025 13.4497C1.7375 12.137 1 10.3565 1 8.5C1 6.64348 1.7375 4.86301 3.05025 3.55025C4.36301 2.2375 6.14348 1.5 8 1.5C9.85652 1.5 11.637 2.2375 12.9497 3.55025C14.2625 4.86301 15 6.64348 15 8.5C15 10.3565 14.2625 12.137 12.9497 13.4497C11.637 14.7625 9.85652 15.5 8 15.5ZM8 16.5C10.1217 16.5 12.1566 15.6571 13.6569 14.1569C15.1571 12.6566 16 10.6217 16 8.5C16 6.37827 15.1571 4.34344 13.6569 2.84315C12.1566 1.34285 10.1217 0.5 8 0.5C5.87827 0.5 3.84344 1.34285 2.34315 2.84315C0.842855 4.34344 0 6.37827 0 8.5C0 10.6217 0.842855 12.6566 2.34315 14.1569C3.84344 15.6571 5.87827 16.5 8 16.5V16.5Z" fill="white" fill-opacity="0.33"/>
<path d="M5.2886 6.2977C5.28723 6.32999 5.29249 6.36223 5.30404 6.39242C5.31558 6.42261 5.33319 6.45011 5.35576 6.47325C5.37833 6.49638 5.4054 6.51466 5.4353 6.52694C5.46519 6.53923 5.49729 6.54527 5.5296 6.5447H6.3546C6.4926 6.5447 6.6026 6.4317 6.6206 6.2947C6.7106 5.63871 7.1606 5.16071 7.9626 5.16071C8.6486 5.16071 9.2766 5.50371 9.2766 6.3287C9.2766 6.9637 8.9026 7.25569 8.3116 7.69969C7.6386 8.18869 7.1056 8.75968 7.1436 9.68667L7.1466 9.90367C7.14765 9.96928 7.17445 10.0318 7.22122 10.0779C7.26799 10.1239 7.33098 10.1497 7.3966 10.1497H8.2076C8.2739 10.1497 8.33749 10.1233 8.38438 10.0764C8.43126 10.0296 8.4576 9.96597 8.4576 9.89967V9.79467C8.4576 9.07668 8.7306 8.86768 9.4676 8.30868C10.0766 7.84569 10.7116 7.33169 10.7116 6.2527C10.7116 4.74171 9.4356 4.01172 8.0386 4.01172C6.7716 4.01172 5.3836 4.60171 5.2886 6.2977V6.2977ZM6.8456 12.0607C6.8456 12.5936 7.2706 12.9876 7.8556 12.9876C8.4646 12.9876 8.8836 12.5936 8.8836 12.0607C8.8836 11.5087 8.4636 11.1207 7.8546 11.1207C7.2706 11.1207 6.8456 11.5087 6.8456 12.0607Z" fill="white" fill-opacity="0.33"/>
</svg>
