<svg width="40" height="40" viewBox="0 0 40 40" fill="none" xmlns="http://www.w3.org/2000/svg">
<path d="M20 6.46492C19.5499 6.46492 19.1851 6.10008 19.1851 5.65V0.814922C19.1851 0.364844 19.5499 0 20 0C20.45 0 20.8149 0.364844 20.8149 0.814922V5.65C20.8149 6.10008 20.4501 6.46492 20 6.46492Z" fill="url(#paint0_linear_1332_13651)"/>
<path d="M26.9345 7.95006C26.726 7.95006 26.5175 7.87053 26.3583 7.71139C26.0401 7.39319 26.0401 6.87717 26.3583 6.55889L29.8543 3.06287C30.1726 2.74467 30.6884 2.74467 31.0068 3.06287C31.325 3.38107 31.325 3.89709 31.0068 4.21537L27.5107 7.71139C27.3516 7.87045 27.143 7.95006 26.9345 7.95006Z" fill="url(#paint1_linear_1332_13651)"/>
<path d="M13.0653 7.95006C12.8567 7.95006 12.6483 7.87053 12.4891 7.71139L8.99305 4.21537C8.67484 3.89717 8.67484 3.38115 8.99305 3.06287C9.31133 2.74467 9.82719 2.74467 10.1455 3.06287L13.6416 6.55889C13.9598 6.87709 13.9598 7.39311 13.6416 7.71139C13.4825 7.87045 13.274 7.95006 13.0653 7.95006Z" fill="url(#paint2_linear_1332_13651)"/>
<path d="M39.7507 17.6929L31.8265 9.055C31.8204 9.04844 31.8147 9.04312 31.8093 9.03898C31.6573 8.88258 31.4481 8.79102 31.2261 8.79102H8.77435C8.77006 8.79102 8.76686 8.7925 8.76272 8.79273C8.54076 8.79594 8.32693 8.88812 8.17381 9.05508L0.249512 17.6929C-0.0461913 18.0153 -0.0112694 18.5109 0.248652 18.7937L19.3987 39.7365C19.7108 40.0713 20.2654 40.104 20.6015 39.7365L39.7515 18.7937C40.0114 18.5107 40.0466 18.0156 39.7507 17.6929ZM31.5032 11.1135L37.2968 17.4289H28.9907L31.5032 11.1135ZM13.3833 19.0587H26.6169L20.0001 36.8489L13.3833 19.0587ZM30.0248 10.4208L27.5169 16.7245L21.8324 10.4208C21.8323 10.4208 30.0248 10.4208 30.0248 10.4208ZM25.9573 17.4289H14.043L20.0002 10.8228L25.9573 17.4289ZM18.1681 10.4208L12.4835 16.7245L9.97568 10.4208C9.97561 10.4208 18.1681 10.4208 18.1681 10.4208ZM8.49709 11.1135L11.0096 17.4289H2.7035L8.49709 11.1135ZM2.69943 19.0587H11.6444L17.7775 35.5483L2.69943 19.0587ZM22.2228 35.5482L28.3558 19.0586H37.3008L22.2228 35.5482Z" fill="url(#paint3_linear_1332_13651)"/>
<defs>
<linearGradient id="paint0_linear_1332_13651" x1="19.1725" y1="-0.0501188" x2="22.0443" y2="0.608055" gradientUnits="userSpaceOnUse">
<stop stop-color="#F9AE3F"/>
<stop offset="0.385417" stop-color="#FFDBA5"/>
<stop offset="1" stop-color="#AD6902"/>
</linearGradient>
<linearGradient id="paint1_linear_1332_13651" x1="26.0802" y1="2.78448" x2="31.2849" y2="7.51601" gradientUnits="userSpaceOnUse">
<stop stop-color="#F9AE3F"/>
<stop offset="0.385417" stop-color="#FFDBA5"/>
<stop offset="1" stop-color="#AD6902"/>
</linearGradient>
<linearGradient id="paint2_linear_1332_13651" x1="8.715" y1="2.78448" x2="13.9197" y2="7.51601" gradientUnits="userSpaceOnUse">
<stop stop-color="#F9AE3F"/>
<stop offset="0.385417" stop-color="#FFDBA5"/>
<stop offset="1" stop-color="#AD6902"/>
</linearGradient>
<linearGradient id="paint3_linear_1332_13651" x1="-0.266243" y1="8.54907" x2="31.2082" y2="45.1479" gradientUnits="userSpaceOnUse">
<stop stop-color="#F9AE3F"/>
<stop offset="0.385417" stop-color="#FFDBA5"/>
<stop offset="1" stop-color="#AD6902"/>
</linearGradient>
</defs>
</svg>
