<svg width="22" height="19" viewBox="0 0 22 19" fill="none" xmlns="http://www.w3.org/2000/svg">
<path d="M20.634 3.93204C20.3199 3.20463 19.8669 2.54546 19.3004 1.99142C18.7336 1.43573 18.0652 0.994135 17.3317 0.690641C16.5711 0.374688 15.7553 0.212965 14.9317 0.21486C13.7762 0.21486 12.6489 0.531266 11.6692 1.12892C11.4348 1.27189 11.2122 1.42892 11.0012 1.60001C10.7903 1.42892 10.5676 1.27189 10.3333 1.12892C9.35356 0.531266 8.22622 0.21486 7.07075 0.21486C6.23872 0.21486 5.43247 0.374235 4.67075 0.690641C3.93481 0.995328 3.27153 1.43361 2.702 1.99142C2.13481 2.54483 1.68172 3.20416 1.36841 3.93204C1.04263 4.68907 0.876221 5.49298 0.876221 6.32032C0.876221 7.10079 1.0356 7.91407 1.352 8.74141C1.61685 9.43282 1.99653 10.15 2.48169 10.8742C3.25044 12.0203 4.30747 13.2156 5.61997 14.4273C7.79497 16.4359 9.94888 17.8234 10.0403 17.8797L10.5958 18.2359C10.8418 18.393 11.1583 18.393 11.4043 18.2359L11.9598 17.8797C12.0512 17.8211 14.2028 16.4359 16.3801 14.4273C17.6926 13.2156 18.7497 12.0203 19.5184 10.8742C20.0036 10.15 20.3856 9.43282 20.6481 8.74141C20.9645 7.91407 21.1239 7.10079 21.1239 6.32032C21.1262 5.49298 20.9598 4.68907 20.634 3.93204Z" fill="white"/>
</svg>
