<svg width="20" height="21" viewBox="0 0 20 21" fill="none" xmlns="http://www.w3.org/2000/svg">
<path d="M18.4024 9.99544C17.7158 8.54896 16.8987 7.36927 15.9512 6.45638L14.9574 7.45013C15.7678 8.22454 16.4736 9.23763 17.084 10.4993C15.459 13.8626 13.1523 15.4603 10 15.4603C9.05377 15.4603 8.18222 15.3146 7.38535 15.0232L6.30859 16.0999C7.41536 16.611 8.64583 16.8665 10 16.8665C13.7539 16.8665 16.5547 14.9115 18.4024 11.0013C18.4766 10.844 18.5152 10.6723 18.5152 10.4984C18.5152 10.3245 18.4766 10.1527 18.4024 9.99544ZM17.1607 3.73294L16.3281 2.89934C16.3136 2.88481 16.2964 2.87329 16.2774 2.86543C16.2585 2.85756 16.2381 2.85352 16.2176 2.85352C16.1971 2.85352 16.1767 2.85756 16.1578 2.86543C16.1388 2.87329 16.1215 2.88481 16.107 2.89934L13.9709 5.0345C12.7932 4.43294 11.4695 4.13216 10 4.13216C6.24609 4.13216 3.44531 6.08724 1.59765 9.99739C1.52338 10.1547 1.48486 10.3264 1.48486 10.5003C1.48486 10.6742 1.52338 10.846 1.59765 11.0033C2.3358 12.5579 3.22447 13.8041 4.26367 14.7417L2.19687 16.8079C2.16759 16.8372 2.15114 16.877 2.15114 16.9184C2.15114 16.9598 2.16759 16.9995 2.19687 17.0288L3.03066 17.8626C3.05996 17.8919 3.09968 17.9084 3.14111 17.9084C3.18253 17.9084 3.22226 17.8919 3.25155 17.8626L17.1607 3.95403C17.1753 3.93952 17.1868 3.92229 17.1947 3.90332C17.2025 3.88435 17.2066 3.86402 17.2066 3.84348C17.2066 3.82295 17.2025 3.80262 17.1947 3.78365C17.1868 3.76468 17.1753 3.74745 17.1607 3.73294ZM2.91601 10.4993C4.54296 7.13606 6.84961 5.53841 10 5.53841C11.0652 5.53841 12.0338 5.72122 12.9125 6.0929L11.5395 7.46595C10.8892 7.119 10.1446 6.99024 9.41563 7.09865C8.68662 7.20707 8.01176 7.54692 7.49061 8.06808C6.96945 8.58924 6.6296 9.2641 6.52118 9.99311C6.41276 10.7221 6.54153 11.4667 6.88847 12.1169L5.25917 13.7462C4.35742 12.9503 3.58007 11.872 2.91601 10.4993ZM7.73437 10.4993C7.73471 10.1549 7.81629 9.81547 7.97248 9.50852C8.12867 9.20157 8.35506 8.93578 8.63326 8.73276C8.91147 8.52974 9.23364 8.39521 9.57361 8.34009C9.91357 8.28498 10.2617 8.31083 10.5898 8.41556L7.83808 11.1673C7.76911 10.9514 7.73412 10.726 7.73437 10.4993Z" fill="white"/>
<path d="M9.92177 12.6869C9.8542 12.6869 9.7876 12.6838 9.72158 12.6777L8.68994 13.7094C9.31043 13.947 9.98646 13.9998 10.6363 13.8614C11.2862 13.723 11.882 13.3993 12.3519 12.9295C12.8217 12.4597 13.1454 11.8638 13.2838 11.214C13.4222 10.5641 13.3694 9.88807 13.1317 9.26758L12.1001 10.2992C12.1061 10.3652 12.1093 10.4318 12.1093 10.4994C12.1094 10.7867 12.0529 11.0712 11.9431 11.3367C11.8332 11.6022 11.6721 11.8434 11.4689 12.0465C11.2658 12.2497 11.0245 12.4108 10.7591 12.5207C10.4936 12.6306 10.2091 12.6871 9.92177 12.6869Z" fill="white"/>
</svg>
