<svg width="16" height="17" viewBox="0 0 16 17" fill="none" xmlns="http://www.w3.org/2000/svg">
<path d="M8.00008 1.83398C5.20008 1.83398 2.66675 3.98065 2.66675 7.30065C2.66675 9.42065 4.30008 11.914 7.56008 14.7873C7.81341 15.0073 8.19341 15.0073 8.44675 14.7873C11.7001 11.914 13.3334 9.42065 13.3334 7.30065C13.3334 3.98065 10.8001 1.83398 8.00008 1.83398ZM8.00008 8.50065C7.26675 8.50065 6.66675 7.90065 6.66675 7.16732C6.66675 6.43398 7.26675 5.83398 8.00008 5.83398C8.73341 5.83398 9.33341 6.43398 9.33341 7.16732C9.33341 7.90065 8.73341 8.50065 8.00008 8.50065Z" fill="white"/>
</svg>
