<svg width="51" height="38" viewBox="0 0 51 38" fill="none" xmlns="http://www.w3.org/2000/svg">
<path d="M0 30.1596H2.40186C2.81609 30.1596 3.17985 30.2048 3.49314 30.2953C3.80643 30.3824 4.0675 30.5059 4.27635 30.6661C4.48521 30.8262 4.64185 31.0176 4.74628 31.2404C4.85419 31.4597 4.90815 31.6999 4.90815 31.961C4.90815 32.1768 4.86638 32.3787 4.78283 32.5667C4.70277 32.7546 4.5879 32.9252 4.43822 33.0784C4.29202 33.228 4.11449 33.3586 3.90563 33.47C3.69677 33.5779 3.46703 33.6632 3.2164 33.7258L5.73836 37.0832H4.386L1.97892 33.8302H1.16438V37.0832H0V30.1596ZM1.16438 33.4804H1.83794C2.09902 33.4804 2.3392 33.4456 2.5585 33.376C2.78128 33.3064 2.97274 33.2089 3.13286 33.0836C3.29646 32.9548 3.42352 32.7999 3.51402 32.6189C3.60453 32.4379 3.64978 32.2342 3.64978 32.008C3.64978 31.7991 3.61323 31.6076 3.54013 31.4336C3.47051 31.2596 3.36957 31.1116 3.23729 30.9898C3.10849 30.8645 2.95359 30.767 2.77258 30.6974C2.59505 30.6278 2.40012 30.593 2.18778 30.593H1.16438V33.4804Z" fill="white"/>
<path d="M13.7967 30.1596V30.6086H10.1469V33.0836H12.5905V33.5326H10.1469V36.6342H13.7967V37.0832H8.98254V30.1596H13.7967Z" fill="white"/>
<path d="M17.4638 30.1596H19.7717C20.4818 30.1596 21.0927 30.2257 21.6044 30.358C22.1161 30.4903 22.5425 30.7026 22.8837 30.995C23.2735 31.3292 23.5659 31.7121 23.7609 32.1437C23.9593 32.5754 24.0585 33.047 24.0585 33.5587C24.0585 34.0461 23.9697 34.5038 23.7922 34.932C23.6181 35.3601 23.3606 35.7343 23.0194 36.0546C22.6818 36.3713 22.2623 36.622 21.7611 36.8065C21.2633 36.9909 20.6924 37.0832 20.0484 37.0832H17.4638V30.1596ZM18.6282 36.5767H19.8657C20.2555 36.5767 20.6228 36.5123 20.9674 36.3835C21.312 36.2547 21.6114 36.0633 21.8655 35.8092C22.1231 35.5551 22.325 35.2435 22.4712 34.8745C22.6208 34.5021 22.6957 34.0722 22.6957 33.5848C22.6957 33.1567 22.6261 32.7651 22.4868 32.41C22.3476 32.0515 22.1527 31.7434 21.902 31.4858C21.6514 31.2282 21.352 31.0281 21.0039 30.8854C20.6593 30.7426 20.2816 30.6713 19.8709 30.6713H18.6282V36.5767Z" fill="white"/>
<path d="M30.6392 30.0029L33.8973 37.0832H32.7121L31.6573 34.7753H28.6863L27.5951 37.0832H27.0103L30.3468 30.0029H30.6392ZM28.89 34.3263H31.4433L30.1849 31.585L28.89 34.3263Z" fill="white"/>
<path d="M42.6031 30.1596V30.6086H40.0968V37.0832H38.9325V30.6086H36.4262V30.1596H42.6031Z" fill="white"/>
<path d="M50.8547 30.1596V30.6086H47.2049V33.0836H49.6485V33.5326H47.2049V36.6342H50.8547V37.0832H46.0405V30.1596H50.8547Z" fill="white"/>
<g clip-path="url(#clip0_1574_24187)">
<path d="M39.5106 6.43974C38.884 5.05085 37.9441 3.8243 36.7088 2.75107C35.6167 1.81312 34.265 1.12769 32.6269 0.703809C30.9887 0.270908 29.0463 0.0634766 26.7815 0.0634766H24.1855C24.4451 0.306983 25.6357 1.4704 25.8326 1.70489H27.1038C28.4107 1.70489 29.6192 1.93036 30.7291 2.39032C31.8302 2.85027 32.788 3.49061 33.5847 4.32033C34.3814 5.15006 35.008 6.1331 35.4466 7.27849C35.8942 8.42387 36.109 9.6865 36.109 11.0664C36.109 12.6356 35.8763 14.0155 35.4019 15.206C34.9274 16.3965 34.2829 17.3975 33.4683 18.2182C32.6537 19.039 31.6959 19.6522 30.5949 20.0671C29.9683 20.3016 29.3148 20.4729 28.6345 20.5721L29.8429 22.1955C31.0335 22.0602 32.1256 21.7987 33.1282 21.4289C34.7215 20.8337 36.0553 20.031 37.1385 19.0029C38.2216 17.9838 39.0452 16.7752 39.6002 15.4044C40.1641 14.0245 40.4416 12.5545 40.4416 10.9942C40.4506 9.34378 40.1373 7.82863 39.5106 6.43974Z" fill="white"/>
<path d="M27.9809 22.132L26.7725 20.5087L21.2673 13.1313L20.023 11.4628C20.4527 11.3546 20.8734 11.2193 21.2673 11.066C21.5985 10.9398 21.9207 10.7955 22.2251 10.6331C22.8875 10.2814 23.4604 9.85751 23.9348 9.37049C24.4093 8.88348 24.7763 8.34235 25.0359 7.7381C25.2955 7.13384 25.4297 6.48449 25.4297 5.79004C25.4297 4.9513 25.2597 4.17569 24.9195 3.4632C24.5883 2.75974 24.087 2.15548 23.4335 1.64141C23.4246 1.6324 23.4156 1.6324 23.4156 1.62338C22.7532 1.10931 21.9207 0.712482 20.9181 0.423882C19.9514 0.153319 18.8324 0.00901876 17.5613 0C17.5166 0 17.4807 0 17.436 0H9.77344V22.2493H13.4883V11.7965H16.0843L17.5613 13.7987L21.2762 18.8582L22.5742 20.6169L23.7737 22.2493H28.0884L27.9809 22.132ZM17.9373 10.3355C17.812 10.3716 17.6866 10.4076 17.5524 10.4437C16.9526 10.597 16.317 10.6692 15.6278 10.6692H13.4794V1.38889H16.7467C17.0242 1.38889 17.2928 1.40693 17.5524 1.443C17.9283 1.49711 18.2864 1.5873 18.6176 1.72258C19.1905 1.94805 19.6828 2.25469 20.1036 2.65152C20.5153 3.04834 20.8376 3.52634 21.0703 4.0855C21.1509 4.28391 21.2225 4.49134 21.2673 4.70779C21.3657 5.0956 21.4105 5.50144 21.4105 5.93434C21.4105 6.34921 21.3657 6.73701 21.2673 7.10678C21.1956 7.38637 21.0972 7.64791 20.9808 7.90043C20.6944 8.47764 20.2915 8.97367 19.7723 9.38853C19.2532 9.79437 18.6444 10.11 17.9373 10.3355Z" fill="white"/>
</g>
<defs>
<clipPath id="clip0_1574_24187">
<rect width="30.677" height="22.2493" fill="white" transform="translate(9.77539)"/>
</clipPath>
</defs>
</svg>
