<svg width="114" height="83" viewBox="0 0 114 83" fill="none" xmlns="http://www.w3.org/2000/svg">
<path d="M0 67.1005H5.34384C6.26546 67.1005 7.07478 67.2011 7.7718 67.4025C8.46882 67.5961 9.04967 67.8711 9.51436 68.2273C9.97904 68.5836 10.3275 69.0095 10.5599 69.5052C10.8 69.9931 10.92 70.5275 10.92 71.1083C10.92 71.5885 10.8271 72.0377 10.6412 72.4559C10.4631 72.8741 10.2075 73.2536 9.87448 73.5944C9.54921 73.9274 9.15423 74.2178 8.68955 74.4657C8.22486 74.7058 7.71371 74.8955 7.1561 75.0349L12.7671 82.5047H9.75831L4.40286 75.2672H2.5906V82.5047H0V67.1005ZM2.5906 74.4889H4.0892C4.67005 74.4889 5.20443 74.4115 5.69235 74.2566C6.18801 74.1017 6.61397 73.8848 6.97022 73.606C7.33422 73.3195 7.61691 72.9748 7.81827 72.5721C8.01963 72.1694 8.12031 71.7163 8.12031 71.2129C8.12031 70.7482 8.03899 70.3223 7.87635 69.935C7.72146 69.5478 7.49686 69.2186 7.20256 68.9476C6.91601 68.6688 6.57137 68.4519 6.16865 68.297C5.77367 68.1421 5.33997 68.0647 4.86754 68.0647H2.5906V74.4889Z" fill="white"/>
<path d="M30.6959 67.1005V68.0995H22.5756V73.606H28.0124V74.6051H22.5756V81.5056H30.6959V82.5047H19.985V67.1005H30.6959Z" fill="white"/>
<path d="M38.8548 67.1005H43.9895C45.5695 67.1005 46.9287 67.2476 48.0671 67.5419C49.2056 67.8362 50.1543 68.3086 50.9133 68.9592C51.7807 69.7027 52.4313 70.5546 52.865 71.5149C53.3064 72.4753 53.5271 73.5247 53.5271 74.6632C53.5271 75.7474 53.3296 76.7658 52.9347 77.7184C52.5474 78.671 51.9743 79.5036 51.2153 80.2161C50.4641 80.9209 49.5309 81.4785 48.4156 81.889C47.3081 82.2994 46.038 82.5047 44.6053 82.5047H38.8548V67.1005ZM41.4454 81.3778H44.1987C45.0661 81.3778 45.8831 81.2345 46.6498 80.948C47.4166 80.6614 48.0826 80.2355 48.648 79.6701C49.2211 79.1047 49.6703 78.4116 49.9956 77.5907C50.3286 76.762 50.4951 75.8055 50.4951 74.7212C50.4951 73.7686 50.3402 72.8974 50.0304 72.1074C49.7206 71.3097 49.2869 70.6243 48.7293 70.0512C48.1717 69.4781 47.5056 69.0328 46.7312 68.7152C45.9644 68.3977 45.1241 68.2389 44.2103 68.2389H41.4454V81.3778Z" fill="white"/>
<path d="M68.1683 66.752L75.4174 82.5047H72.7803L70.4336 77.3699H63.8235L61.3956 82.5047H60.0945L67.5178 66.752H68.1683ZM64.2766 76.3709H69.9573L67.1576 70.2719L64.2766 76.3709Z" fill="white"/>
<path d="M94.7867 67.1005V68.0995H89.2105V82.5047H86.6199V68.0995H81.0437V67.1005H94.7867Z" fill="white"/>
<path d="M113.145 67.1005V68.0995H105.025V73.606H110.462V74.6051H105.025V81.5056H113.145V82.5047H102.434V67.1005H113.145Z" fill="white"/>
<g clip-path="url(#clip0_1574_24334)">
<path d="M87.9124 14.329C86.5182 11.2389 84.427 8.50994 81.6786 6.12213C79.2488 4.03531 76.2415 2.51032 72.5968 1.56724C68.9522 0.604087 64.6304 0.142578 59.5916 0.142578H53.8159C54.3935 0.68435 57.0423 3.27281 57.4805 3.79452H60.3086C63.2163 3.79452 65.905 4.29616 68.3746 5.31951C70.8243 6.34285 72.9553 7.76751 74.7279 9.61355C76.5004 11.4596 77.8945 13.6467 78.8704 16.1951C79.8662 18.7434 80.3442 21.5526 80.3442 24.6226C80.3442 28.1141 79.8264 31.1841 78.7708 33.8328C77.7153 36.4814 76.2813 38.7087 74.469 40.5347C72.6566 42.3606 70.5256 43.7251 68.0759 44.6481C66.6817 45.1698 65.2279 45.5511 63.7142 45.7718L66.4029 49.3836C69.0518 49.0826 71.4815 48.5007 73.7121 47.678C77.2572 46.3537 80.2247 44.5679 82.6346 42.2804C85.0444 40.013 86.8767 37.3242 88.1115 34.2742C89.3662 31.2042 89.9836 27.9335 89.9836 24.4621C90.0036 20.7901 89.3065 17.4191 87.9124 14.329Z" fill="white"/>
<path d="M62.2604 49.243L59.5717 45.6312L47.3233 29.2175L44.555 25.5054C45.5109 25.2646 46.447 24.9636 47.3233 24.6225C48.0602 24.3416 48.7772 24.0205 49.4543 23.6593C50.9281 22.8768 52.2028 21.9337 53.2583 20.8501C54.3139 19.7666 55.1304 18.5627 55.708 17.2183C56.2856 15.8739 56.5843 14.4291 56.5843 12.8841C56.5843 11.018 56.2059 9.29234 55.4491 7.70715C54.7122 6.14203 53.5969 4.79764 52.143 3.6539C52.1231 3.63383 52.1032 3.63383 52.1032 3.61377C50.6294 2.47002 48.7772 1.58714 46.5466 0.945037C44.3956 0.343069 41.9061 0.0220187 39.078 0.00195312C38.9784 0.00195312 38.8988 0.00195312 38.7992 0.00195312H21.751V49.5038H30.0162V26.2478H35.7919L39.078 30.7024L47.3432 41.9592L50.2311 45.872L52.8998 49.5038H62.4994L62.2604 49.243ZM39.9145 22.9972C39.6357 23.0774 39.3568 23.1577 39.0581 23.2379C37.7237 23.5791 36.3097 23.7396 34.7761 23.7396H29.9963V3.09206H37.2657C37.8831 3.09206 38.4805 3.13219 39.0581 3.21245C39.8946 3.33285 40.6912 3.5335 41.4281 3.83449C42.7028 4.33613 43.7981 5.01836 44.7342 5.90125C45.6503 6.78413 46.3673 7.84761 46.8851 9.09168C47.0644 9.53312 47.2237 9.99463 47.3233 10.4762C47.5424 11.339 47.642 12.242 47.642 13.2051C47.642 14.1282 47.5424 14.991 47.3233 15.8137C47.164 16.4357 46.9449 17.0176 46.686 17.5794C46.0487 18.8636 45.1524 19.9672 43.9973 20.8903C42.8422 21.7932 41.4879 22.4955 39.9145 22.9972Z" fill="white"/>
</g>
<defs>
<clipPath id="clip0_1574_24334">
<rect width="68.2526" height="49.5019" fill="white" transform="translate(21.751)"/>
</clipPath>
</defs>
</svg>
