<svg width="88" height="64" viewBox="0 0 88 64" fill="none" xmlns="http://www.w3.org/2000/svg">
<path d="M0.853516 51.91H4.96938C5.67921 51.91 6.30256 51.9876 6.83941 52.1427C7.37626 52.2918 7.82364 52.5035 8.18154 52.7779C8.53944 53.0523 8.80787 53.3804 8.98682 53.7622C9.17173 54.138 9.26419 54.5495 9.26419 54.9969C9.26419 55.3668 9.19261 55.7127 9.04945 56.0348C8.91225 56.3569 8.71541 56.6492 8.45891 56.9117C8.20838 57.1682 7.90417 57.3919 7.54626 57.5828C7.18836 57.7677 6.79467 57.9138 6.36519 58.0212L10.6868 63.7744H8.36944L4.24463 58.2001H2.84881V63.7744H0.853516V51.91ZM2.84881 57.6007H4.00304C4.45042 57.6007 4.86201 57.541 5.2378 57.4217C5.61956 57.3024 5.94764 57.1354 6.22203 56.9206C6.50239 56.6999 6.72011 56.4345 6.8752 56.1243C7.03029 55.8141 7.10784 55.4652 7.10784 55.0775C7.10784 54.7196 7.0452 54.3915 6.91994 54.0932C6.80064 53.795 6.62765 53.5415 6.40098 53.3327C6.18028 53.1179 5.91483 52.9509 5.60465 52.8316C5.30044 52.7123 4.96639 52.6527 4.60253 52.6527H2.84881V57.6007Z" fill="white"/>
<path d="M24.4957 51.91V52.6795H18.2414V56.9206H22.4289V57.6901H18.2414V63.005H24.4957V63.7744H16.2461V51.91H24.4957Z" fill="white"/>
<path d="M30.7798 51.91H34.7346C35.9514 51.91 36.9983 52.0234 37.8752 52.25C38.752 52.4767 39.4827 52.8406 40.0673 53.3416C40.7354 53.9143 41.2364 54.5704 41.5705 55.3101C41.9105 56.0497 42.0805 56.858 42.0805 57.7349C42.0805 58.57 41.9284 59.3544 41.6242 60.0881C41.3259 60.8218 40.8845 61.463 40.2999 62.0118C39.7213 62.5546 39.0025 62.9841 38.1436 63.3002C37.2906 63.6164 36.3123 63.7744 35.2088 63.7744H30.7798V51.91ZM32.7751 62.9065H34.8956C35.5637 62.9065 36.193 62.7962 36.7836 62.5755C37.3741 62.3548 37.8871 62.0267 38.3225 61.5913C38.7639 61.1558 39.1099 60.6219 39.3604 59.9896C39.6169 59.3514 39.7452 58.6147 39.7452 57.7796C39.7452 57.0459 39.6259 56.3748 39.3873 55.7664C39.1487 55.152 38.8146 54.6241 38.3852 54.1827C37.9557 53.7413 37.4427 53.3983 36.8462 53.1537C36.2556 52.9092 35.6084 52.7869 34.9046 52.7869H32.7751V62.9065Z" fill="white"/>
<path d="M53.3572 51.6416L58.9405 63.7744H56.9094L55.102 59.8196H50.0109L48.1408 63.7744H47.1387L52.8562 51.6416H53.3572ZM50.3598 59.0502H54.7352L52.5788 54.3527L50.3598 59.0502Z" fill="white"/>
<path d="M73.8589 51.91V52.6795H69.5641V63.7744H67.5688V52.6795H63.274V51.91H73.8589Z" fill="white"/>
<path d="M87.9988 51.91V52.6795H81.7445V56.9206H85.932V57.6901H81.7445V63.005H87.9988V63.7744H79.7492V51.91H87.9988Z" fill="white"/>
<g clip-path="url(#clip0_1574_24185)">
<path d="M68.564 11.2634C67.4903 8.88336 65.8796 6.78152 63.7628 4.94241C61.8913 3.33512 59.5751 2.16057 56.7679 1.4342C53.9608 0.692372 50.6321 0.336914 46.7512 0.336914H42.3027C42.7476 0.754191 44.7877 2.74784 45.1252 3.14967H47.3034C49.543 3.14967 51.6138 3.53603 53.5159 4.32422C55.4027 5.11241 57.044 6.20969 58.4093 7.63153C59.7745 9.05336 60.8483 10.7379 61.5999 12.7007C62.3669 14.6634 62.735 16.8271 62.735 19.1916C62.735 21.8807 62.3362 24.2453 61.5232 26.2853C60.7102 28.3253 59.6058 30.0408 58.2099 31.4472C56.814 32.8536 55.1726 33.9045 53.2859 34.6154C52.2121 35.0172 51.0923 35.3109 49.9265 35.4809L51.9973 38.2627C54.0375 38.0309 55.9089 37.5827 57.6269 36.9491C60.3574 35.9291 62.643 34.5536 64.4991 32.7918C66.3552 31.0454 67.7664 28.9744 68.7174 26.6253C69.6838 24.2608 70.1594 21.7417 70.1594 19.068C70.1747 16.2398 69.6378 13.6434 68.564 11.2634Z" fill="white"/>
<path d="M48.8061 38.1543L46.7353 35.3725L37.3015 22.7305L35.1693 19.8714C35.9056 19.686 36.6265 19.4541 37.3015 19.1914C37.869 18.975 38.4212 18.7278 38.9428 18.4496C40.0779 17.8469 41.0596 17.1205 41.8726 16.2859C42.6856 15.4514 43.3146 14.5241 43.7594 13.4886C44.2043 12.4532 44.4343 11.3404 44.4343 10.1504C44.4343 8.71314 44.1429 7.38403 43.56 6.16311C42.9924 4.95765 42.1334 3.92218 41.0136 3.04127C40.9983 3.02581 40.9829 3.02581 40.9829 3.01036C39.8478 2.12944 38.4212 1.44944 36.7032 0.954886C35.0465 0.491245 33.1291 0.24397 30.9509 0.228516C30.8742 0.228516 30.8128 0.228516 30.7361 0.228516H17.6055V38.3552H23.9714V20.4432H28.4199L30.9509 23.8742L37.3168 32.5443L39.541 35.5579L41.5965 38.3552H48.9902L48.8061 38.1543ZM31.5951 17.9396C31.3804 18.0014 31.1656 18.0632 30.9355 18.125C29.9078 18.3878 28.8187 18.5114 27.6375 18.5114H23.956V2.60854H29.555C30.0305 2.60854 30.4907 2.63945 30.9355 2.70126C31.5798 2.79399 32.1934 2.94854 32.7609 3.18036C33.7427 3.56673 34.5864 4.09219 35.3073 4.77219C36.0129 5.4522 36.5652 6.2713 36.964 7.22949C37.102 7.56949 37.2248 7.92495 37.3015 8.29586C37.4702 8.96041 37.5469 9.65587 37.5469 10.3977C37.5469 11.1086 37.4702 11.7732 37.3015 12.4068C37.1787 12.8859 37.01 13.3341 36.8106 13.7668C36.3197 14.7559 35.6294 15.6059 34.7397 16.3168C33.8501 17.0123 32.807 17.5532 31.5951 17.9396Z" fill="white"/>
</g>
<defs>
<clipPath id="clip0_1574_24185">
<rect width="52.5686" height="38.1267" fill="white" transform="translate(17.6055 0.228516)"/>
</clipPath>
</defs>
</svg>
