<svg width="24" height="24" viewBox="0 0 24 24" fill="none" xmlns="http://www.w3.org/2000/svg">
<path d="M17.1405 4.50667C15.123 4.56217 13.5592 5.10967 12.0367 5.63917C10.4085 6.20467 8.87175 6.73792 6.7425 6.75967C5.31975 6.78217 3.89475 6.53617 2.4945 6.05167L1.5 5.70817V18.5197L1.9995 18.6974C3.30375 19.1587 4.63725 19.4249 5.96475 19.4879C6.1755 19.4977 6.38175 19.5029 6.58425 19.5029C8.844 19.5029 10.5743 18.9029 12.252 18.3239C14.0205 17.7119 15.6885 17.1337 17.9647 17.2409C19.1713 17.3029 20.3622 17.5414 21.4995 17.9489L22.5 18.3029V5.48617L22.0065 5.30617C20.7303 4.8414 19.3906 4.57432 18.0338 4.51417C17.7362 4.50096 17.4382 4.49846 17.1405 4.50667V4.50667ZM17.181 5.99617C17.436 5.98867 17.697 5.98867 17.9678 5.99917C18.2483 6.01117 18.5287 6.03667 18.8085 6.06967C18.9226 6.54026 19.2147 6.94829 19.6234 7.20802C20.032 7.46774 20.5255 7.55893 21 7.46242V14.2889C20.7543 14.2389 20.5011 14.2388 20.2553 14.2886C20.0096 14.3383 19.7764 14.437 19.5695 14.5787C19.3626 14.7203 19.1864 14.9021 19.0511 15.1132C18.9159 15.3244 18.8244 15.5605 18.7822 15.8077C18.5338 15.7821 18.2847 15.7636 18.0353 15.7522C15.474 15.6397 13.5855 16.2839 11.76 16.9169C9.98925 17.5304 8.3115 18.1102 6.03675 18.0022C5.75344 17.9874 5.47076 17.9623 5.18925 17.9272C5.07417 17.4579 4.78202 17.0513 4.37395 16.7926C3.96589 16.5338 3.47355 16.4429 3 16.5389V9.71242C3.24716 9.76272 3.50194 9.7625 3.74901 9.71176C3.99608 9.66101 4.23033 9.56081 4.43766 9.41717C4.64499 9.27353 4.82112 9.08943 4.95544 8.87594C5.08976 8.66245 5.1795 8.424 5.21925 8.17492C5.733 8.22817 6.24675 8.25892 6.759 8.25067C9.13275 8.22667 10.8585 7.62592 12.5287 7.04542C13.9995 6.53317 15.4013 6.05167 17.181 5.99617V5.99617ZM12 8.25067C10.3455 8.25067 9 9.93292 9 12.0007C9 14.0684 10.3455 15.7507 12 15.7507C13.6545 15.7507 15 14.0684 15 12.0007C15 9.93292 13.6545 8.25067 12 8.25067ZM12 9.75067C12.813 9.75067 13.5 10.7812 13.5 12.0007C13.5 13.2202 12.813 14.2507 12 14.2507C11.187 14.2507 10.5 13.2202 10.5 12.0007C10.5 10.7812 11.187 9.75067 12 9.75067ZM17.625 9.75067C17.3266 9.75067 17.0405 9.8692 16.8295 10.0802C16.6185 10.2912 16.5 10.5773 16.5 10.8757C16.5 11.174 16.6185 11.4602 16.8295 11.6712C17.0405 11.8821 17.3266 12.0007 17.625 12.0007C17.9234 12.0007 18.2095 11.8821 18.4205 11.6712C18.6315 11.4602 18.75 11.174 18.75 10.8757C18.75 10.5773 18.6315 10.2912 18.4205 10.0802C18.2095 9.8692 17.9234 9.75067 17.625 9.75067ZM6.375 12.0007C6.07663 12.0007 5.79048 12.1192 5.5795 12.3302C5.36853 12.5412 5.25 12.8273 5.25 13.1257C5.25 13.424 5.36853 13.7102 5.5795 13.9212C5.79048 14.1321 6.07663 14.2507 6.375 14.2507C6.67337 14.2507 6.95952 14.1321 7.1705 13.9212C7.38147 13.7102 7.5 13.424 7.5 13.1257C7.5 12.8273 7.38147 12.5412 7.1705 12.3302C6.95952 12.1192 6.67337 12.0007 6.375 12.0007Z" fill="white" fill-opacity="0.33"/>
</svg>
