<svg width="24" height="25" viewBox="0 0 24 25" fill="none" xmlns="http://www.w3.org/2000/svg">
<path d="M16.125 7.8125V6.6875C16.125 6.58437 16.0406 6.5 15.9375 6.5H6.9375C6.83437 6.5 6.75 6.58437 6.75 6.6875V7.8125C6.75 7.91563 6.83437 8 6.9375 8H15.9375C16.0406 8 16.125 7.91563 16.125 7.8125ZM6.9375 9.875C6.83437 9.875 6.75 9.95937 6.75 10.0625V11.1875C6.75 11.2906 6.83437 11.375 6.9375 11.375H11.25C11.3531 11.375 11.4375 11.2906 11.4375 11.1875V10.0625C11.4375 9.95937 11.3531 9.875 11.25 9.875H6.9375ZM15.75 12.5938C12.9539 12.5938 10.6875 14.8602 10.6875 17.6562C10.6875 20.4523 12.9539 22.7188 15.75 22.7188C18.5461 22.7188 20.8125 20.4523 20.8125 17.6562C20.8125 14.8602 18.5461 12.5938 15.75 12.5938ZM18.2695 20.1758C17.5969 20.8484 16.7016 21.2188 15.75 21.2188C14.7984 21.2188 13.9031 20.8484 13.2305 20.1758C12.5578 19.5031 12.1875 18.6078 12.1875 17.6562C12.1875 16.7047 12.5578 15.8094 13.2305 15.1367C13.9031 14.4641 14.7984 14.0938 15.75 14.0938C16.7016 14.0938 17.5969 14.4641 18.2695 15.1367C18.9422 15.8094 19.3125 16.7047 19.3125 17.6562C19.3125 18.6078 18.9422 19.5031 18.2695 20.1758ZM17.8359 15.875H16.7977C16.7367 15.875 16.6805 15.9031 16.6453 15.9523L15.157 18.0102L14.6156 17.2625C14.5983 17.2383 14.5754 17.2187 14.5489 17.2053C14.5224 17.1918 14.493 17.1849 14.4633 17.1852H13.4297C13.2773 17.1852 13.1883 17.3586 13.2773 17.4828L15.007 19.8758C15.082 19.9789 15.2344 19.9789 15.3094 19.8758L17.9859 16.1727C18.0773 16.0484 17.9883 15.875 17.8359 15.875ZM10.3125 20.4688H4.875V3.96875H18V12.0312C18 12.1344 18.0844 12.2188 18.1875 12.2188H19.5C19.6031 12.2188 19.6875 12.1344 19.6875 12.0312V3.03125C19.6875 2.61641 19.3523 2.28125 18.9375 2.28125H3.9375C3.52266 2.28125 3.1875 2.61641 3.1875 3.03125V21.4062C3.1875 21.8211 3.52266 22.1562 3.9375 22.1562H10.3125C10.4156 22.1562 10.5 22.0719 10.5 21.9688V20.6562C10.5 20.5531 10.4156 20.4688 10.3125 20.4688Z" fill="white"/>
</svg>
