<svg width="32" height="32" viewBox="0 0 32 32" fill="none" xmlns="http://www.w3.org/2000/svg">
<path d="M18.7719 2C18.9837 2.00001 19.1899 2.06721 19.361 2.19193C19.5321 2.31664 19.6592 2.49244 19.7239 2.694L20.8239 6.112C21.2859 6.338 21.7279 6.592 22.1499 6.878L25.6619 6.122C25.869 6.07779 26.0848 6.10045 26.2781 6.18671C26.4715 6.27297 26.6325 6.41838 26.7379 6.602L29.5099 11.4C29.6158 11.5835 29.6606 11.7959 29.638 12.0065C29.6153 12.2172 29.5264 12.4152 29.3839 12.572L26.9739 15.232C27.009 15.7421 27.009 16.2539 26.9739 16.764L29.3839 19.428C29.5264 19.5848 29.6153 19.7828 29.638 19.9935C29.6606 20.2041 29.6158 20.4165 29.5099 20.6L26.7379 25.4C26.6322 25.5833 26.4711 25.7283 26.2777 25.8141C26.0844 25.9 25.8688 25.9224 25.6619 25.878L22.1499 25.122C21.7299 25.406 21.2859 25.662 20.8259 25.888L19.7239 29.306C19.6592 29.5076 19.5321 29.6834 19.361 29.8081C19.1899 29.9328 18.9837 30 18.7719 30H13.228C13.0162 30 12.81 29.9328 12.6389 29.8081C12.4678 29.6834 12.3407 29.5076 12.276 29.306L11.178 25.89C10.7172 25.6647 10.2728 25.4074 9.84796 25.12L6.33797 25.878C6.1309 25.9222 5.91514 25.8996 5.72177 25.8133C5.5284 25.727 5.3674 25.5816 5.26197 25.398L2.48997 20.6C2.38412 20.4165 2.33929 20.2041 2.36193 19.9935C2.38458 19.7828 2.47353 19.5848 2.61597 19.428L5.02597 16.764C4.99106 16.2553 4.99106 15.7447 5.02597 15.236L2.61597 12.572C2.47353 12.4152 2.38458 12.2172 2.36193 12.0065C2.33929 11.7959 2.38412 11.5835 2.48997 11.4L5.26197 6.6C5.3677 6.41675 5.52882 6.27175 5.72216 6.18586C5.91551 6.09997 6.13111 6.07761 6.33797 6.122L9.84796 6.88C10.272 6.594 10.716 6.336 11.178 6.11L12.278 2.694C12.3425 2.49309 12.469 2.31776 12.6393 2.1931C12.8096 2.06844 13.0149 2.00085 13.226 2H18.7699H18.7719ZM18.0399 4H13.96L12.824 7.534L12.058 7.908C11.6814 8.09227 11.3179 8.3021 10.97 8.536L10.262 9.016L6.62997 8.232L4.58997 11.768L7.07997 14.524L7.01997 15.372C6.99123 15.7902 6.99123 16.2098 7.01997 16.628L7.07997 17.476L4.58597 20.232L6.62797 23.768L10.26 22.986L10.968 23.464C11.3159 23.6979 11.6794 23.9077 12.056 24.092L12.822 24.466L13.96 28H18.0439L19.1839 24.464L19.9479 24.092C20.3241 23.9082 20.687 23.6983 21.0339 23.464L21.7399 22.986L25.3739 23.768L27.4139 20.232L24.9219 17.476L24.9819 16.628C25.0108 16.2092 25.0108 15.7888 24.9819 15.37L24.9219 14.522L27.4159 11.768L25.3739 8.232L21.7399 9.012L21.0339 8.536C20.687 8.30163 20.3241 8.09178 19.9479 7.908L19.1839 7.536L18.0419 4H18.0399ZM16 10C17.5912 10 19.1174 10.6321 20.2426 11.7574C21.3678 12.8826 21.9999 14.4087 21.9999 16C21.9999 17.5913 21.3678 19.1174 20.2426 20.2426C19.1174 21.3679 17.5912 22 16 22C14.4087 22 12.8825 21.3679 11.7573 20.2426C10.6321 19.1174 9.99996 17.5913 9.99996 16C9.99996 14.4087 10.6321 12.8826 11.7573 11.7574C12.8825 10.6321 14.4087 10 16 10ZM16 12C14.9391 12 13.9217 12.4214 13.1715 13.1716C12.4214 13.9217 12 14.9391 12 16C12 17.0609 12.4214 18.0783 13.1715 18.8284C13.9217 19.5786 14.9391 20 16 20C17.0608 20 18.0782 19.5786 18.8284 18.8284C19.5785 18.0783 19.9999 17.0609 19.9999 16C19.9999 14.9391 19.5785 13.9217 18.8284 13.1716C18.0782 12.4214 17.0608 12 16 12Z" fill="white"/>
</svg>
