<svg width="32" height="32" viewBox="0 0 32 32" fill="none" xmlns="http://www.w3.org/2000/svg">
<path d="M15.9998 2.66699C8.64784 2.66699 2.6665 8.64833 2.6665 16.0003V21.5243C2.6665 22.8897 3.8625 24.0003 5.33317 24.0003H6.6665C7.02013 24.0003 7.35926 23.8599 7.60931 23.6098C7.85936 23.3598 7.99984 23.0206 7.99984 22.667V15.8097C7.99984 15.456 7.85936 15.1169 7.60931 14.8668C7.35926 14.6168 7.02013 14.4763 6.6665 14.4763H5.45584C6.19717 9.31633 10.6372 5.33366 15.9998 5.33366C21.3625 5.33366 25.8025 9.31633 26.5438 14.4763H25.3332C24.9795 14.4763 24.6404 14.6168 24.3904 14.8668C24.1403 15.1169 23.9998 15.456 23.9998 15.8097V24.0003C23.9998 25.471 22.8038 26.667 21.3332 26.667H18.6665V25.3337H13.3332V29.3337H21.3332C24.2745 29.3337 26.6665 26.9417 26.6665 24.0003C28.1372 24.0003 29.3332 22.8897 29.3332 21.5243V16.0003C29.3332 8.64833 23.3518 2.66699 15.9998 2.66699Z" fill="white"/>
</svg>
