<svg width="24" height="25" viewBox="0 0 24 25" fill="none" xmlns="http://www.w3.org/2000/svg">
<path fill-rule="evenodd" clip-rule="evenodd" d="M8 1.5C7.86654 1.50001 7.73443 1.52674 7.61147 1.57861C7.4885 1.63047 7.37715 1.70643 7.284 1.802L1.284 7.958C1.10194 8.14473 1.00003 8.3952 1 8.656V16.5C1.00006 16.7652 1.10545 17.0195 1.293 17.207L7.293 23.207C7.48049 23.3946 7.73481 23.4999 8 23.5H16C16.2652 23.4999 16.5195 23.3946 16.707 23.207L22.707 17.207C22.8946 17.0195 22.9999 16.7652 23 16.5V8.656C23 8.3952 22.8981 8.14473 22.716 7.958L16.716 1.802C16.6228 1.70643 16.5115 1.63047 16.3885 1.57861C16.2656 1.52674 16.1335 1.50001 16 1.5H8ZM8 11.5C7.73478 11.5 7.48043 11.6054 7.29289 11.7929C7.10536 11.9804 7 12.2348 7 12.5C7 12.7652 7.10536 13.0196 7.29289 13.2071C7.48043 13.3946 7.73478 13.5 8 13.5H16C16.2652 13.5 16.5196 13.3946 16.7071 13.2071C16.8946 13.0196 17 12.7652 17 12.5C17 12.2348 16.8946 11.9804 16.7071 11.7929C16.5196 11.6054 16.2652 11.5 16 11.5H8Z" fill="#2B66FB"/>
</svg>
