<svg width="32" height="32" viewBox="0 0 32 32" fill="none" xmlns="http://www.w3.org/2000/svg">
<path d="M16 2.66699C8.64796 2.66699 2.66663 8.64833 2.66663 16.0003V21.5243C2.66663 22.8897 3.86263 24.0003 5.33329 24.0003H6.66663C7.02025 24.0003 7.35939 23.8599 7.60944 23.6098C7.85948 23.3598 7.99996 23.0206 7.99996 22.667V15.8097C7.99996 15.456 7.85948 15.1169 7.60944 14.8668C7.35939 14.6168 7.02025 14.4763 6.66663 14.4763H5.45596C6.19729 9.31633 10.6373 5.33366 16 5.33366C21.3626 5.33366 25.8026 9.31633 26.544 14.4763H25.3333C24.9797 14.4763 24.6405 14.6168 24.3905 14.8668C24.1404 15.1169 24 15.456 24 15.8097V24.0003C24 25.471 22.804 26.667 21.3333 26.667H18.6666V25.3337H13.3333V29.3337H21.3333C24.2746 29.3337 26.6666 26.9417 26.6666 24.0003C28.1373 24.0003 29.3333 22.8897 29.3333 21.5243V16.0003C29.3333 8.64833 23.352 2.66699 16 2.66699Z" fill="white"/>
</svg>
