<svg width="22" height="22" viewBox="0 0 22 22" fill="none" xmlns="http://www.w3.org/2000/svg">
<path fill-rule="evenodd" clip-rule="evenodd" d="M11.0002 21.8998C16.9649 21.8998 21.8002 17.0645 21.8002 11.0998C21.8002 5.13513 16.9649 0.299805 11.0002 0.299805C5.03552 0.299805 0.200195 5.13513 0.200195 11.0998C0.200195 17.0645 5.03552 21.8998 11.0002 21.8998ZM4.52887 8.52879L7.1922 5.86212H7.19153C7.30625 5.74724 7.45893 5.67816 7.62095 5.66785C7.78297 5.65754 7.94319 5.70671 8.07153 5.80612L8.1342 5.86145L10.8049 8.52812C10.9259 8.6477 10.9967 8.80905 11.0027 8.97912C11.0086 9.14919 10.9493 9.31509 10.8369 9.44285C10.7245 9.5706 10.5675 9.65053 10.398 9.66626C10.2286 9.68199 10.0595 9.63233 9.92553 9.52745L9.8622 9.47145L8.33353 7.94479V15.6668C8.33368 15.8302 8.2738 15.988 8.16528 16.1101C8.05676 16.2323 7.90715 16.3103 7.74487 16.3295L7.66687 16.3341C7.50348 16.3341 7.34579 16.274 7.22375 16.1654C7.10171 16.0568 7.02382 15.9071 7.00487 15.7448L7.0002 15.6668V7.94012L5.4722 9.47145C5.35749 9.58634 5.2048 9.65541 5.04278 9.66572C4.88076 9.67603 4.72055 9.62687 4.5922 9.52745L4.52887 9.47212C4.41399 9.35741 4.34491 9.20472 4.3346 9.0427C4.32429 8.88068 4.37345 8.72047 4.47287 8.59212L4.52887 8.52879ZM14.2555 5.67345L14.3335 5.66879C14.4969 5.66883 14.6546 5.72887 14.7766 5.83751C14.8987 5.94616 14.9766 6.09583 14.9955 6.25812L15.0002 6.33545V14.0581L16.5282 12.5288C16.6429 12.4139 16.7956 12.3448 16.9576 12.3345C17.1196 12.3242 17.2799 12.3734 17.4082 12.4728L17.4715 12.5281C17.5864 12.6428 17.6555 12.7955 17.6658 12.9575C17.6761 13.1196 17.6269 13.2798 17.5275 13.4081L17.4715 13.4715L14.8075 16.1381C14.6928 16.253 14.5401 16.3221 14.3781 16.3324C14.2161 16.3427 14.0559 16.2935 13.9275 16.1941L13.8649 16.1381L11.1955 13.4715C11.0757 13.3516 11.0061 13.1906 11.0007 13.0212C10.9954 12.8519 11.0547 12.6868 11.1667 12.5596C11.2787 12.4324 11.4349 12.3527 11.6036 12.3365C11.7723 12.3204 11.9408 12.3691 12.0749 12.4728L12.1382 12.5288L13.6669 14.0555V6.33545C13.6669 6.17216 13.7268 6.01456 13.8353 5.89254C13.9439 5.77052 14.0934 5.69256 14.2555 5.67345Z" fill="#2B66FB"/>
</svg>
