<svg width="32" height="32" viewBox="0 0 32 32" fill="none" xmlns="http://www.w3.org/2000/svg">
<path d="M24.8889 26.6663H5.33332V7.11079H17.0844L18.8622 5.33301H5.33332C4.86182 5.33301 4.40964 5.52031 4.07624 5.85371C3.74284 6.1871 3.55554 6.63929 3.55554 7.11079V26.6663C3.55554 27.1378 3.74284 27.59 4.07624 27.9234C4.40964 28.2568 4.86182 28.4441 5.33332 28.4441H24.8889C25.3604 28.4441 25.8126 28.2568 26.146 27.9234C26.4794 27.59 26.6667 27.1378 26.6667 26.6663V13.333L24.8889 15.1108V26.6663Z" fill="white"/>
<path d="M29.8044 5.1915L26.8089 2.19594C26.6759 2.06263 26.518 1.95687 26.3441 1.8847C26.1702 1.81254 25.9838 1.77539 25.7955 1.77539C25.6073 1.77539 25.4209 1.81254 25.247 1.8847C25.0731 1.95687 24.9152 2.06263 24.7822 2.19594L12.5955 14.4537L11.6089 18.7293C11.5668 18.9365 11.5713 19.1505 11.6218 19.3559C11.6724 19.5612 11.7678 19.7528 11.9013 19.9168C12.0347 20.0809 12.2029 20.2133 12.3936 20.3046C12.5844 20.3959 12.793 20.4438 13.0044 20.4448C13.1137 20.4569 13.224 20.4569 13.3333 20.4448L17.6444 19.4937L29.8044 7.21816C29.9377 7.08522 30.0435 6.92728 30.1157 6.7534C30.1878 6.57951 30.225 6.39309 30.225 6.20483C30.225 6.01656 30.1878 5.83015 30.1157 5.65626C30.0435 5.48238 29.9377 5.32444 29.8044 5.1915V5.1915ZM16.72 17.8493L13.4667 18.5693L14.2222 15.3426L23.3955 6.10705L25.9022 8.61372L16.72 17.8493ZM26.9067 7.60927L24.4 5.10261L25.7778 3.69816L28.3022 6.22261L26.9067 7.60927Z" fill="white"/>
</svg>
