<svg width="28" height="28" viewBox="0 0 28 28" fill="none" xmlns="http://www.w3.org/2000/svg">
<g clip-path="url(#clip0_1632_3870)">
<path d="M16.2031 0.355469C16.4293 0.355469 16.6462 0.445317 16.8062 0.605247C16.9661 0.765178 17.0559 0.98209 17.0559 1.20827C17.0559 1.43444 17.1458 1.65135 17.3057 1.81129C17.4656 1.97122 17.6826 2.06106 17.9087 2.06106C18.1349 2.06106 18.3518 2.15091 18.5117 2.31084C18.6717 2.47077 18.7615 2.68769 18.7615 2.91386V3.76666C18.7615 3.99284 18.6717 4.20975 18.5117 4.36968C18.3518 4.52961 18.1349 4.61946 17.9087 4.61946H9.38075C9.15458 4.61946 8.93766 4.52961 8.77773 4.36968C8.6178 4.20975 8.52795 3.99284 8.52795 3.76666V2.91386C8.52795 2.68769 8.6178 2.47077 8.77773 2.31084C8.93766 2.15091 9.15458 2.06106 9.38075 2.06106C9.60693 2.06106 9.82384 1.97122 9.98377 1.81129C10.1437 1.65135 10.2335 1.43444 10.2335 1.20827C10.2335 0.98209 10.3234 0.765178 10.4833 0.605247C10.6433 0.445317 10.8602 0.355469 11.0863 0.355469L16.2031 0.355469Z" fill="white"/>
<path d="M5.96953 2.06152H6.9673C6.87085 2.33548 6.82183 2.62388 6.82232 2.91432V3.76712C6.82232 4.44565 7.09187 5.09638 7.57166 5.57618C8.05145 6.05597 8.70219 6.32551 9.38072 6.32551H17.9087C18.5872 6.32551 19.238 6.05597 19.7178 5.57618C20.1975 5.09638 20.4671 4.44565 20.4671 3.76712V2.91432C20.4671 2.61584 20.4159 2.3276 20.3221 2.06152H21.3199C21.9984 2.06152 22.6492 2.33107 23.1289 2.81086C23.6087 3.29065 23.8783 3.94139 23.8783 4.61992V25.0871C23.8783 25.7656 23.6087 26.4163 23.1289 26.8961C22.6492 27.3759 21.9984 27.6455 21.3199 27.6455H5.96953C5.291 27.6455 4.64026 27.3759 4.16047 26.8961C3.68068 26.4163 3.41113 25.7656 3.41113 25.0871V4.61992C3.41113 3.94139 3.68068 3.29065 4.16047 2.81086C4.64026 2.33107 5.291 2.06152 5.96953 2.06152V2.06152Z" fill="white"/>
<path d="M7.64478 11.5967H19.6448" stroke="black" stroke-width="1.8" stroke-linecap="round"/>
<path d="M7.64478 16.5967H19.6448" stroke="black" stroke-width="1.8" stroke-linecap="round"/>
<path d="M7.64478 21.5967H16.6448" stroke="black" stroke-width="1.8" stroke-linecap="round"/>
</g>
<defs>
<clipPath id="clip0_1632_3870">
<rect width="27.2895" height="27.2895" fill="white" transform="translate(0 0.355469)"/>
</clipPath>
</defs>
</svg>
