<svg width="24" height="25" viewBox="0 0 24 25" fill="none" xmlns="http://www.w3.org/2000/svg">
<path fill-rule="evenodd" clip-rule="evenodd" d="M16.5 23C18.0913 23 19.6174 22.3679 20.7426 21.2426C21.8679 20.1174 22.5 18.5913 22.5 17C22.5 15.4087 21.8679 13.8826 20.7426 12.7574C19.6174 11.6321 18.0913 11 16.5 11C14.9087 11 13.3826 11.6321 12.2574 12.7574C11.1321 13.8826 10.5 15.4087 10.5 17C10.5 18.5913 11.1321 20.1174 12.2574 21.2426C13.3826 22.3679 14.9087 23 16.5 23ZM24 17C24 18.9891 23.2098 20.8968 21.8033 22.3033C20.3968 23.7098 18.4891 24.5 16.5 24.5C14.5109 24.5 12.6032 23.7098 11.1967 22.3033C9.79018 20.8968 9 18.9891 9 17C9 15.0109 9.79018 13.1032 11.1967 11.6967C12.6032 10.2902 14.5109 9.5 16.5 9.5C18.4891 9.5 20.3968 10.2902 21.8033 11.6967C23.2098 13.1032 24 15.0109 24 17Z" fill="white" fill-opacity="0.33"/>
<path d="M14.157 18.416C14.2275 19.31 14.934 20.006 16.2015 20.09V20.75H16.764V20.0855C18.0765 19.994 18.843 19.292 18.843 18.275C18.843 17.348 18.258 16.871 17.208 16.625L16.764 16.52V14.72C17.328 14.7845 17.685 15.092 17.7705 15.518H18.7575C18.687 14.6555 17.9475 13.982 16.764 13.9085V13.25H16.2015V13.925C15.081 14.0345 14.319 14.708 14.319 15.662C14.319 16.505 14.886 17.042 15.8295 17.261L16.2015 17.3525V19.2605C15.6255 19.1735 15.243 18.8555 15.1575 18.416H14.1555H14.157ZM16.197 16.385C15.6435 16.2575 15.3435 15.995 15.3435 15.602C15.3435 15.161 15.6675 14.831 16.2015 14.735V16.385H16.197ZM16.845 17.504C17.5185 17.66 17.8275 17.912 17.8275 18.3575C17.8275 18.866 17.442 19.214 16.764 19.2785V17.486L16.845 17.504Z" fill="white" fill-opacity="0.33"/>
<path d="M1.5 0.5C1.10218 0.5 0.720644 0.658035 0.43934 0.93934C0.158035 1.22064 0 1.60218 0 2L0 14C0 14.3978 0.158035 14.7794 0.43934 15.0607C0.720644 15.342 1.10218 15.5 1.5 15.5H7.6245C7.7115 14.984 7.842 14.483 8.0115 14H4.5C4.5 13.2044 4.18393 12.4413 3.62132 11.8787C3.05871 11.3161 2.29565 11 1.5 11V5C2.29565 5 3.05871 4.68393 3.62132 4.12132C4.18393 3.55871 4.5 2.79565 4.5 2H19.5C19.5 2.79565 19.8161 3.55871 20.3787 4.12132C20.9413 4.68393 21.7044 5 22.5 5V10.292C23.07 10.802 23.5755 11.384 24 12.023V2C24 1.60218 23.842 1.22064 23.5607 0.93934C23.2794 0.658035 22.8978 0.5 22.5 0.5H1.5Z" fill="white" fill-opacity="0.33"/>
<path d="M14.997 8.12467L15 8.00017C14.9997 7.48356 14.866 6.97578 14.6118 6.52601C14.3577 6.07624 13.9917 5.69973 13.5493 5.43295C13.1069 5.16616 12.6031 5.01813 12.0867 5.00321C11.5703 4.98828 11.0588 5.10696 10.6017 5.34775C10.1446 5.58854 9.75751 5.94328 9.47779 6.37762C9.19807 6.81195 9.03526 7.31116 9.00511 7.82689C8.97497 8.34263 9.07851 8.8574 9.30572 9.32137C9.53293 9.78534 9.8761 10.1828 10.302 10.4752C11.5976 9.24108 13.2326 8.42253 14.997 8.12467Z" fill="white" fill-opacity="0.33"/>
</svg>
