<svg width="24" height="21" viewBox="0 0 24 21" fill="none" xmlns="http://www.w3.org/2000/svg">
<g clip-path="url(#clip0_1097_6748)">
<path d="M19.8 17.7004H4.2C3.87 17.7004 3.6 17.9704 3.6 18.3004V19.5004C3.6 19.8304 3.87 20.1004 4.2 20.1004H19.8C20.13 20.1004 20.4 19.8304 20.4 19.5004V18.3004C20.4 17.9704 20.13 17.7004 19.8 17.7004ZM22.2 5.70039C21.2063 5.70039 20.4 6.50664 20.4 7.50039C20.4 7.76664 20.46 8.01414 20.565 8.24289L17.85 9.87039C17.2725 10.2154 16.5263 10.0204 16.1925 9.43539L13.1363 4.08789C13.5375 3.75789 13.8 3.26289 13.8 2.70039C13.8 1.70664 12.9938 0.900391 12 0.900391C11.0063 0.900391 10.2 1.70664 10.2 2.70039C10.2 3.26289 10.4625 3.75789 10.8638 4.08789L7.8075 9.43539C7.47375 10.0204 6.72375 10.2154 6.15 9.87039L3.43875 8.24289C3.54 8.01789 3.60375 7.76664 3.60375 7.50039C3.60375 6.50664 2.7975 5.70039 1.80375 5.70039C0.81 5.70039 0 6.50664 0 7.50039C0 8.49414 0.80625 9.30039 1.8 9.30039C1.8975 9.30039 1.995 9.28539 2.08875 9.27039L4.8 16.5004H19.2L21.9113 9.27039C22.005 9.28539 22.1025 9.30039 22.2 9.30039C23.1938 9.30039 24 8.49414 24 7.50039C24 6.50664 23.1938 5.70039 22.2 5.70039Z" fill="white" fill-opacity="0.33"/>
</g>
<defs>
<clipPath id="clip0_1097_6748">
<rect width="24" height="19.2" fill="white" transform="translate(0 0.900391)"/>
</clipPath>
</defs>
</svg>
