<svg width="21" height="21" viewBox="0 0 21 21" fill="none" xmlns="http://www.w3.org/2000/svg">
<path d="M16.1759 14.617L20.4589 18.899L19.0439 20.314L14.7619 16.031C13.1686 17.3082 11.1869 18.0029 9.1449 18C4.1769 18 0.144897 13.968 0.144897 9C0.144897 4.032 4.1769 0 9.1449 0C14.1129 0 18.1449 4.032 18.1449 9C18.1478 11.042 17.4531 13.0237 16.1759 14.617ZM14.1699 13.875C15.439 12.5699 16.1478 10.8204 16.1449 9C16.1449 5.132 13.0119 2 9.1449 2C5.2769 2 2.1449 5.132 2.1449 9C2.1449 12.867 5.2769 16 9.1449 16C10.9653 16.0029 12.7148 15.2941 14.0199 14.025L14.1699 13.875Z" fill="white"/>
</svg>
