<svg width="25" height="25" viewBox="0 0 25 25" fill="none" xmlns="http://www.w3.org/2000/svg">
<path d="M23.3242 6.76367H20.2492C19.8742 5.03867 18.3742 3.76367 16.5742 3.76367C14.7742 3.76367 13.2742 5.03867 12.8992 6.76367H2.32422V8.26367H12.8992C13.2742 9.98867 14.7742 11.2637 16.5742 11.2637C18.3742 11.2637 19.8742 9.98867 20.2492 8.26367H23.3242V6.76367ZM16.5742 9.76367C15.2992 9.76367 14.3242 8.78867 14.3242 7.51367C14.3242 6.23867 15.2992 5.26367 16.5742 5.26367C17.8492 5.26367 18.8242 6.23867 18.8242 7.51367C18.8242 8.78867 17.8492 9.76367 16.5742 9.76367ZM2.32422 18.7637H5.39922C5.77422 20.4887 7.27422 21.7637 9.07422 21.7637C10.8742 21.7637 12.3742 20.4887 12.7492 18.7637H23.3242V17.2637H12.7492C12.3742 15.5387 10.8742 14.2637 9.07422 14.2637C7.27422 14.2637 5.77422 15.5387 5.39922 17.2637H2.32422V18.7637ZM9.07422 15.7637C10.3492 15.7637 11.3242 16.7387 11.3242 18.0137C11.3242 19.2887 10.3492 20.2637 9.07422 20.2637C7.79922 20.2637 6.82422 19.2887 6.82422 18.0137C6.82422 16.7387 7.79922 15.7637 9.07422 15.7637Z" fill="white"/>
</svg>
