<svg width="20" height="21" viewBox="0 0 20 21" fill="none" xmlns="http://www.w3.org/2000/svg">
<path d="M11.2867 9.21403C10.6041 8.53173 9.67846 8.14844 8.71334 8.14844C7.74821 8.14844 6.82259 8.53173 6.14 9.21403L3.56584 11.7874C2.88324 12.47 2.49976 13.3958 2.49976 14.3611C2.49976 15.3265 2.88324 16.2523 3.56584 16.9349C4.24844 17.6175 5.17424 18.001 6.13959 18.001C7.10493 18.001 8.03074 17.6175 8.71334 16.9349L10 15.6482" stroke="white" stroke-width="2" stroke-linecap="round" stroke-linejoin="round"/>
<path d="M8.71338 11.7869C9.39597 12.4692 10.3216 12.8525 11.2867 12.8525C12.2518 12.8525 13.1775 12.4692 13.86 11.7869L16.4342 9.21358C17.1168 8.53098 17.5003 7.60518 17.5003 6.63983C17.5003 5.67449 17.1168 4.74868 16.4342 4.06608C15.7516 3.38348 14.8258 3 13.8605 3C12.8951 3 11.9693 3.38348 11.2867 4.06608L10 5.35275" stroke="white" stroke-width="2" stroke-linecap="round" stroke-linejoin="round"/>
</svg>
