<svg width="24" height="24" viewBox="0 0 24 24" fill="none" xmlns="http://www.w3.org/2000/svg">
<path fill-rule="evenodd" clip-rule="evenodd" d="M11.6336 0.340474C11.0865 0.444248 10.9251 0.552863 6.20666 3.99295C3.64243 5.86252 1.47086 7.45993 1.38097 7.5428C1.12492 7.77877 0.893586 8.15073 0.757024 8.54594L0.631711 8.90869V15.0375C0.631711 21.78 0.616318 21.4265 0.934978 22.0073C1.26351 22.6062 1.99328 23.1247 2.67589 23.2443C2.85922 23.2764 3.92927 23.2956 5.53924 23.2956C8.10692 23.2956 8.11008 23.2954 8.32997 23.1877C8.4908 23.1089 8.58 23.0223 8.66111 22.866C8.77192 22.6525 8.77212 22.6476 8.77286 20.1818C8.77365 17.4065 8.77552 17.3882 9.12625 16.6808C9.51191 15.903 10.3868 15.2126 11.2882 14.9748C11.7202 14.8608 12.5342 14.8609 12.9648 14.9749C13.6029 15.1438 14.1108 15.4461 14.5954 15.9453C14.9722 16.3336 15.2499 16.8219 15.3845 17.3332C15.4752 17.6776 15.4818 17.8714 15.4818 20.1774C15.4818 22.6485 15.4819 22.6525 15.5928 22.866C15.6739 23.0224 15.7635 23.1093 15.9258 23.1893L16.1478 23.2988L18.886 23.2838C21.5966 23.269 21.6271 23.2677 21.928 23.1594C22.7261 22.8721 23.3392 22.222 23.5486 21.4409C23.6592 21.0283 23.6593 9.12228 23.5487 8.70977C23.4368 8.29228 23.1962 7.87215 22.9143 7.60186C22.5991 7.29964 13.6299 0.748046 13.2774 0.562546C12.8315 0.327867 12.1707 0.238569 11.6336 0.340474Z" fill="white"/>
</svg>
