<svg width="25" height="24" viewBox="0 0 25 24" fill="none" xmlns="http://www.w3.org/2000/svg">
<g clip-path="url(#clip0_1620_1461)">
<path fill-rule="evenodd" clip-rule="evenodd" d="M17.3949 1.86928C18.6429 0.586784 21.7644 2.83228 17.3949 5.71828C13.0254 2.83228 16.1469 0.586784 17.3949 1.86928ZM13.6449 7.50028C13.6449 8.69376 13.1708 9.83835 12.3269 10.6823C11.483 11.5262 10.3384 12.0003 9.1449 12.0003C7.95142 12.0003 6.80683 11.5262 5.96292 10.6823C5.119 9.83835 4.6449 8.69376 4.6449 7.50028C4.6449 6.30681 5.119 5.16222 5.96292 4.3183C6.80683 3.47439 7.95142 3.00028 9.1449 3.00028C10.3384 3.00028 11.483 3.47439 12.3269 4.3183C13.1708 5.16222 13.6449 6.30681 13.6449 7.50028ZM0.144897 19.5003C0.144897 21.0003 1.6449 21.0003 1.6449 21.0003H16.6449C16.6449 21.0003 18.1449 21.0003 18.1449 19.5003C18.1449 18.0003 16.6449 13.5003 9.1449 13.5003C1.6449 13.5003 0.144897 18.0003 0.144897 19.5003ZM20.3949 7.36528C22.4754 5.22778 27.6774 8.97028 20.3949 13.7808C13.1139 8.97028 18.3144 5.22778 20.3949 7.36678V7.36528ZM22.6449 3.24778C23.4774 2.39278 25.5579 3.88978 22.6449 5.81428C19.7319 3.88978 21.8124 2.39278 22.6449 3.24928V3.24778Z" fill="white"/>
</g>
<defs>
<clipPath id="clip0_1620_1461">
<rect width="24" height="24" fill="white" transform="translate(0.144897)"/>
</clipPath>
</defs>
</svg>
