<svg width="23" height="42" viewBox="0 0 23 42" fill="none" xmlns="http://www.w3.org/2000/svg">
<path d="M1.4323 39.2984L0.730726 40.011L2.15591 41.4142L2.85749 40.7016L1.4323 39.2984ZM21.348 20.7969L22.0443 21.5147L22.7731 20.8077L22.0551 20.0898L21.348 20.7969ZM2.85201 0.886641L2.1449 0.179533L0.730688 1.59375L1.43779 2.30086L2.85201 0.886641ZM2.1449 40C2.85749 40.7016 2.85753 40.7015 2.85763 40.7014C2.85772 40.7013 2.85786 40.7012 2.85805 40.701C2.85843 40.7006 2.859 40.7 2.85976 40.6993C2.86128 40.6977 2.86356 40.6954 2.86659 40.6923C2.87265 40.6862 2.88172 40.677 2.89372 40.6648C2.91772 40.6404 2.95347 40.6041 3.00038 40.5565C3.09421 40.4613 3.23273 40.3207 3.4114 40.1396C3.76872 39.7772 4.28661 39.2524 4.92873 38.6025C6.21299 37.3028 7.99403 35.5032 9.98115 33.5037C13.9571 29.503 18.7521 24.7081 22.0443 21.5147L20.6518 20.0791C17.345 23.2867 12.5384 28.0933 8.56256 32.0939C6.57376 34.0951 4.79132 35.8961 3.50608 37.1968C2.86345 37.8472 2.34509 38.3725 1.98735 38.7353C1.80848 38.9166 1.66976 39.0574 1.57574 39.1528C1.52873 39.2005 1.49289 39.2369 1.46879 39.2614C1.45675 39.2736 1.44764 39.2829 1.44153 39.2891C1.43848 39.2922 1.43618 39.2945 1.43464 39.2961C1.43386 39.2968 1.43328 39.2974 1.4329 39.2978C1.4327 39.298 1.43255 39.2982 1.43246 39.2983C1.43236 39.2984 1.4323 39.2984 2.1449 40ZM22.0551 20.0898L2.85201 0.886641L1.43779 2.30086L20.6409 21.504L22.0551 20.0898Z" fill="white" fill-opacity="0.33"/>
</svg>
