<svg width="58" height="48" viewBox="0 0 58 48" fill="none" xmlns="http://www.w3.org/2000/svg">
<path fill-rule="evenodd" clip-rule="evenodd" d="M41.6869 0.908994C44.7028 -2.24788 52.2463 3.27942 41.6869 10.3833C31.1274 3.27942 38.6709 -2.24788 41.6869 0.908994ZM32.6245 14.7697C32.6245 17.7075 31.4788 20.5249 29.4393 22.6022C27.3999 24.6795 24.6339 25.8465 21.7497 25.8465C18.8655 25.8465 16.0994 24.6795 14.06 22.6022C12.0206 20.5249 10.8748 17.7075 10.8748 14.7697C10.8748 11.832 12.0206 9.01456 14.06 6.93726C16.0994 4.85997 18.8655 3.69295 21.7497 3.69295C24.6339 3.69295 27.3999 4.85997 29.4393 6.93726C31.4788 9.01456 32.6245 11.832 32.6245 14.7697ZM0 44.3077C0 48 3.62495 48 3.62495 48H39.8744C39.8744 48 43.4993 48 43.4993 44.3077C43.4993 40.6155 39.8744 29.5387 21.7497 29.5387C3.62495 29.5387 0 40.6155 0 44.3077ZM48.9368 14.4374C53.9646 9.17595 66.5359 18.3881 48.9368 30.2292C31.3413 18.3881 43.909 9.17595 48.9368 14.4411V14.4374ZM54.3742 4.30218C56.386 2.19759 61.4138 5.88246 54.3742 10.6196C47.3345 5.88246 52.3623 2.19759 54.3742 4.30587V4.30218Z" fill="white"/>
</svg>
